  0
SECTION
  2
BLOCKS
  0
ENDSEC
  0
SECTION
  2
ENTITIES
  0
LINE
  8
0
 10
16.25
 20
6.93921
 11
16.0353
 21
7.10397
  0
LINE
  8
0
 10
16.0353
 20
7.10397
 11
15.7845
 21
7.31818
  0
LINE
  8
0
 10
15.7845
 20
7.31818
 11
15.5452
 21
7.54523
  0
LINE
  8
0
 10
15.5452
 20
7.54523
 11
15.3182
 21
7.78447
  0
LINE
  8
0
 10
15.3182
 20
7.78447
 11
15.104
 21
8.03528
  0
LINE
  8
0
 10
15.104
 20
8.03528
 11
14.9032
 21
8.29695
  0
LINE
  8
0
 10
14.9032
 20
8.29695
 11
14.7164
 21
8.56877
  0
LINE
  8
0
 10
14.7164
 20
8.56877
 11
14.544
 21
8.84999
  0
LINE
  8
0
 10
14.544
 20
8.84999
 11
14.3867
 21
9.13985
  0
LINE
  8
0
 10
14.3867
 20
9.13985
 11
14.2447
 21
9.43755
  0
LINE
  8
0
 10
14.2447
 20
9.43755
 11
14.1184
 21
9.74228
  0
LINE
  8
0
 10
14.1184
 20
9.74228
 11
14.0083
 21
10.0532
  0
LINE
  8
0
 10
14.0083
 20
10.0532
 11
13.9147
 21
10.3694
  0
LINE
  8
0
 10
13.9147
 20
10.3694
 11
13.8377
 21
10.6902
  0
LINE
  8
0
 10
13.8377
 20
10.6902
 11
13.7776
 21
11.0145
  0
LINE
  8
0
 10
13.7776
 20
11.0145
 11
13.7345
 21
11.3415
  0
LINE
  8
0
 10
13.7345
 20
11.3415
 11
13.7086
 21
11.6703
  0
LINE
  8
0
 10
13.7086
 20
11.6703
 11
13.7
 21
12
  0
LINE
  8
0
 10
13.7
 20
12
 11
13.7086
 21
12.3297
  0
LINE
  8
0
 10
13.7086
 20
12.3297
 11
13.7345
 21
12.6585
  0
LINE
  8
0
 10
13.7345
 20
12.6585
 11
13.7776
 21
12.9855
  0
LINE
  8
0
 10
13.7776
 20
12.9855
 11
13.8377
 21
13.3098
  0
LINE
  8
0
 10
13.8377
 20
13.3098
 11
13.9147
 21
13.6306
  0
LINE
  8
0
 10
13.9147
 20
13.6306
 11
14.0083
 21
13.9468
  0
LINE
  8
0
 10
14.0083
 20
13.9468
 11
14.1184
 21
14.2577
  0
LINE
  8
0
 10
14.1184
 20
14.2577
 11
14.2447
 21
14.5624
  0
LINE
  8
0
 10
14.2447
 20
14.5624
 11
14.3867
 21
14.8601
  0
LINE
  8
0
 10
14.3867
 20
14.8601
 11
14.544
 21
15.15
  0
LINE
  8
0
 10
14.544
 20
15.15
 11
14.7164
 21
15.4312
  0
LINE
  8
0
 10
14.7164
 20
15.4312
 11
14.9032
 21
15.703
  0
LINE
  8
0
 10
14.9032
 20
15.703
 11
15.104
 21
15.9647
  0
LINE
  8
0
 10
15.104
 20
15.9647
 11
15.3182
 21
16.2155
  0
LINE
  8
0
 10
15.3182
 20
16.2155
 11
15.5452
 21
16.4548
  0
LINE
  8
0
 10
15.5452
 20
16.4548
 11
15.7845
 21
16.6818
  0
LINE
  8
0
 10
15.7845
 20
16.6818
 11
16.0353
 21
16.896
  0
LINE
  8
0
 10
16.0353
 20
16.896
 11
16.297
 21
17.0968
  0
LINE
  8
0
 10
16.297
 20
17.0968
 11
16.5688
 21
17.2836
  0
LINE
  8
0
 10
16.5688
 20
17.2836
 11
16.85
 21
17.4559
  0
LINE
  8
0
 10
16.85
 20
17.4559
 11
17.1398
 21
17.6133
  0
LINE
  8
0
 10
17.1398
 20
17.6133
 11
17.4376
 21
17.7553
  0
LINE
  8
0
 10
17.4376
 20
17.7553
 11
17.7423
 21
17.8815
  0
LINE
  8
0
 10
17.7423
 20
17.8815
 11
18.0532
 21
17.9917
  0
LINE
  8
0
 10
18.0532
 20
17.9917
 11
18.3694
 21
18.0853
  0
LINE
  8
0
 10
18.3694
 20
18.0853
 11
18.6902
 21
18.1623
  0
LINE
  8
0
 10
18.6902
 20
18.1623
 11
19.0145
 21
18.2224
  0
LINE
  8
0
 10
19.0145
 20
18.2224
 11
19.3415
 21
18.2655
  0
LINE
  8
0
 10
19.3415
 20
18.2655
 11
19.6703
 21
18.2914
  0
LINE
  8
0
 10
19.6703
 20
18.2914
 11
20
 21
18.3
  0
LINE
  8
0
 10
20
 20
18.3
 11
20.3297
 21
18.2914
  0
LINE
  8
0
 10
20.3297
 20
18.2914
 11
20.6585
 21
18.2655
  0
LINE
  8
0
 10
20.6585
 20
18.2655
 11
20.9855
 21
18.2224
  0
LINE
  8
0
 10
20.9855
 20
18.2224
 11
21.3098
 21
18.1623
  0
LINE
  8
0
 10
21.3098
 20
18.1623
 11
21.6306
 21
18.0853
  0
LINE
  8
0
 10
21.6306
 20
18.0853
 11
21.9468
 21
17.9917
  0
LINE
  8
0
 10
21.9468
 20
17.9917
 11
22.2577
 21
17.8815
  0
LINE
  8
0
 10
22.2577
 20
17.8815
 11
22.5624
 21
17.7553
  0
LINE
  8
0
 10
22.5624
 20
17.7553
 11
22.8601
 21
17.6133
  0
LINE
  8
0
 10
22.8601
 20
17.6133
 11
23.15
 21
17.4559
  0
LINE
  8
0
 10
23.15
 20
17.4559
 11
23.4312
 21
17.2836
  0
LINE
  8
0
 10
23.4312
 20
17.2836
 11
23.703
 21
17.0968
  0
LINE
  8
0
 10
23.703
 20
17.0968
 11
23.9647
 21
16.896
  0
LINE
  8
0
 10
23.9647
 20
16.896
 11
24.2155
 21
16.6818
  0
LINE
  8
0
 10
24.2155
 20
16.6818
 11
24.4548
 21
16.4548
  0
LINE
  8
0
 10
24.4548
 20
16.4548
 11
24.6818
 21
16.2155
  0
LINE
  8
0
 10
24.6818
 20
16.2155
 11
24.896
 21
15.9647
  0
LINE
  8
0
 10
24.896
 20
15.9647
 11
25.0968
 21
15.703
  0
LINE
  8
0
 10
25.0968
 20
15.703
 11
25.2836
 21
15.4312
  0
LINE
  8
0
 10
25.2836
 20
15.4312
 11
25.4559
 21
15.15
  0
LINE
  8
0
 10
25.4559
 20
15.15
 11
25.6133
 21
14.8601
  0
LINE
  8
0
 10
25.6133
 20
14.8601
 11
25.7553
 21
14.5624
  0
LINE
  8
0
 10
25.7553
 20
14.5624
 11
25.8815
 21
14.2577
  0
LINE
  8
0
 10
25.8815
 20
14.2577
 11
25.9917
 21
13.9468
  0
LINE
  8
0
 10
25.9917
 20
13.9468
 11
26.0853
 21
13.6306
  0
LINE
  8
0
 10
26.0853
 20
13.6306
 11
26.1623
 21
13.3098
  0
LINE
  8
0
 10
26.1623
 20
13.3098
 11
26.2224
 21
12.9855
  0
LINE
  8
0
 10
26.2224
 20
12.9855
 11
26.2655
 21
12.6585
  0
LINE
  8
0
 10
26.2655
 20
12.6585
 11
26.2914
 21
12.3297
  0
LINE
  8
0
 10
26.2914
 20
12.3297
 11
26.3
 21
12
  0
LINE
  8
0
 10
26.3
 20
12
 11
26.2914
 21
11.6703
  0
LINE
  8
0
 10
26.2914
 20
11.6703
 11
26.2655
 21
11.3415
  0
LINE
  8
0
 10
26.2655
 20
11.3415
 11
26.2224
 21
11.0145
  0
LINE
  8
0
 10
26.2224
 20
11.0145
 11
26.1623
 21
10.6902
  0
LINE
  8
0
 10
26.1623
 20
10.6902
 11
26.0853
 21
10.3694
  0
LINE
  8
0
 10
26.0853
 20
10.3694
 11
25.9917
 21
10.0532
  0
LINE
  8
0
 10
25.9917
 20
10.0532
 11
25.8815
 21
9.74228
  0
LINE
  8
0
 10
25.8815
 20
9.74228
 11
25.7553
 21
9.43755
  0
LINE
  8
0
 10
25.7553
 20
9.43755
 11
25.6133
 21
9.13985
  0
LINE
  8
0
 10
25.6133
 20
9.13985
 11
25.4559
 21
8.84999
  0
LINE
  8
0
 10
25.4559
 20
8.84999
 11
25.2836
 21
8.56877
  0
LINE
  8
0
 10
25.2836
 20
8.56877
 11
25.0968
 21
8.29695
  0
LINE
  8
0
 10
25.0968
 20
8.29695
 11
24.896
 21
8.03528
  0
LINE
  8
0
 10
24.896
 20
8.03528
 11
24.6818
 21
7.78447
  0
LINE
  8
0
 10
24.6818
 20
7.78447
 11
24.4548
 21
7.54523
  0
LINE
  8
0
 10
24.4548
 20
7.54523
 11
24.2155
 21
7.31818
  0
LINE
  8
0
 10
24.2155
 20
7.31818
 11
23.9647
 21
7.10397
  0
LINE
  8
0
 10
23.9647
 20
7.10397
 11
23.75
 21
6.93921
  0
LINE
  8
0
 10
23.75
 20
6.93921
 11
23.75
 21
0
  0
LINE
  8
0
 10
23.75
 20
0
 11
40
 21
0
  0
LINE
  8
0
 10
40
 20
0
 11
40.2494
 21
9.52515
  0
LINE
  8
0
 10
40.2494
 20
9.52515
 11
40.997
 21
19.0242
  0
LINE
  8
0
 10
40.997
 20
19.0242
 11
42.2407
 21
28.4711
  0
LINE
  8
0
 10
42.2407
 20
28.4711
 11
43.9771
 21
37.8399
  0
LINE
  8
0
 10
43.9771
 20
37.8399
 11
46.2015
 21
47.1051
  0
LINE
  8
0
 10
46.2015
 20
47.1051
 11
48.9077
 21
56.2411
  0
LINE
  8
0
 10
48.9077
 20
56.2411
 11
52.0883
 21
65.223
  0
LINE
  8
0
 10
52.0883
 20
65.223
 11
55.7347
 21
74.0261
  0
LINE
  8
0
 10
55.7347
 20
74.0261
 11
59.8368
 21
82.6263
  0
LINE
  8
0
 10
59.8368
 20
82.6263
 11
64.3834
 21
91
  0
LINE
  8
0
 10
64.3834
 20
91
 11
69.362
 21
99.1243
  0
LINE
  8
0
 10
69.362
 20
99.1243
 11
74.7589
 21
106.977
  0
LINE
  8
0
 10
74.7589
 20
106.977
 11
80.5594
 21
114.536
  0
LINE
  8
0
 10
80.5594
 20
114.536
 11
86.7476
 21
121.782
  0
LINE
  8
0
 10
86.7476
 20
121.782
 11
93.3066
 21
128.693
  0
LINE
  8
0
 10
93.3066
 20
128.693
 11
81.2858
 21
140.714
  0
LINE
  8
0
 10
81.2858
 20
140.714
 11
86.0968
 21
145.525
  0
LINE
  8
0
 10
86.0968
 20
145.525
 11
86.4022
 21
145.452
  0
LINE
  8
0
 10
86.4022
 20
145.452
 11
86.7111
 21
145.395
  0
LINE
  8
0
 10
86.7111
 20
145.395
 11
87.0225
 21
145.354
  0
LINE
  8
0
 10
87.0225
 20
145.354
 11
87.3357
 21
145.329
  0
LINE
  8
0
 10
87.3357
 20
145.329
 11
87.6497
 21
145.321
  0
LINE
  8
0
 10
87.6497
 20
145.321
 11
87.9637
 21
145.329
  0
LINE
  8
0
 10
87.9637
 20
145.329
 11
88.2769
 21
145.354
  0
LINE
  8
0
 10
88.2769
 20
145.354
 11
88.5883
 21
145.395
  0
LINE
  8
0
 10
88.5883
 20
145.395
 11
88.8972
 21
145.452
  0
LINE
  8
0
 10
88.8972
 20
145.452
 11
89.2026
 21
145.525
  0
LINE
  8
0
 10
89.2026
 20
145.525
 11
89.5038
 21
145.615
  0
LINE
  8
0
 10
89.5038
 20
145.615
 11
89.7999
 21
145.719
  0
LINE
  8
0
 10
89.7999
 20
145.719
 11
90.0901
 21
145.84
  0
LINE
  8
0
 10
90.0901
 20
145.84
 11
90.3737
 21
145.975
  0
LINE
  8
0
 10
90.3737
 20
145.975
 11
90.6497
 21
146.125
  0
LINE
  8
0
 10
90.6497
 20
146.125
 11
90.9175
 21
146.289
  0
LINE
  8
0
 10
90.9175
 20
146.289
 11
91.1764
 21
146.467
  0
LINE
  8
0
 10
91.1764
 20
146.467
 11
91.4256
 21
146.658
  0
LINE
  8
0
 10
91.4256
 20
146.658
 11
91.6645
 21
146.862
  0
LINE
  8
0
 10
91.6645
 20
146.862
 11
91.8923
 21
147.078
  0
LINE
  8
0
 10
91.8923
 20
147.078
 11
92.1086
 21
147.306
  0
LINE
  8
0
 10
92.1086
 20
147.306
 11
92.3126
 21
147.545
  0
LINE
  8
0
 10
92.3126
 20
147.545
 11
92.5038
 21
147.794
  0
LINE
  8
0
 10
92.5038
 20
147.794
 11
92.6817
 21
148.053
  0
LINE
  8
0
 10
92.6817
 20
148.053
 11
92.8459
 21
148.321
  0
LINE
  8
0
 10
92.8459
 20
148.321
 11
92.9957
 21
148.597
  0
LINE
  8
0
 10
92.9957
 20
148.597
 11
93.131
 21
148.88
  0
LINE
  8
0
 10
93.131
 20
148.88
 11
93.2512
 21
149.171
  0
LINE
  8
0
 10
93.2512
 20
149.171
 11
93.356
 21
149.467
  0
LINE
  8
0
 10
93.356
 20
149.467
 11
93.4453
 21
149.768
  0
LINE
  8
0
 10
93.4453
 20
149.768
 11
93.5186
 21
150.073
  0
LINE
  8
0
 10
93.5186
 20
150.073
 11
93.5758
 21
150.382
  0
LINE
  8
0
 10
93.5758
 20
150.382
 11
93.6168
 21
150.694
  0
LINE
  8
0
 10
93.6168
 20
150.694
 11
93.6415
 21
151.007
  0
LINE
  8
0
 10
93.6415
 20
151.007
 11
93.6497
 21
151.321
  0
LINE
  8
0
 10
93.6497
 20
151.321
 11
93.6415
 21
151.635
  0
LINE
  8
0
 10
93.6415
 20
151.635
 11
93.6168
 21
151.948
  0
LINE
  8
0
 10
93.6168
 20
151.948
 11
93.5758
 21
152.259
  0
LINE
  8
0
 10
93.5758
 20
152.259
 11
93.5186
 21
152.568
  0
LINE
  8
0
 10
93.5186
 20
152.568
 11
93.4453
 21
152.874
  0
LINE
  8
0
 10
93.4453
 20
152.874
 11
93.356
 21
153.175
  0
LINE
  8
0
 10
93.356
 20
153.175
 11
93.2512
 21
153.471
  0
LINE
  8
0
 10
93.2512
 20
153.471
 11
93.131
 21
153.761
  0
LINE
  8
0
 10
93.131
 20
153.761
 11
92.9957
 21
154.045
  0
LINE
  8
0
 10
92.9957
 20
154.045
 11
92.8459
 21
154.321
  0
LINE
  8
0
 10
92.8459
 20
154.321
 11
92.6817
 21
154.589
  0
LINE
  8
0
 10
92.6817
 20
154.589
 11
92.5038
 21
154.848
  0
LINE
  8
0
 10
92.5038
 20
154.848
 11
92.3126
 21
155.097
  0
LINE
  8
0
 10
92.3126
 20
155.097
 11
92.1086
 21
155.336
  0
LINE
  8
0
 10
92.1086
 20
155.336
 11
91.8923
 21
155.563
  0
LINE
  8
0
 10
91.8923
 20
155.563
 11
91.6645
 21
155.78
  0
LINE
  8
0
 10
91.6645
 20
155.78
 11
91.4256
 21
155.984
  0
LINE
  8
0
 10
91.4256
 20
155.984
 11
91.1764
 21
156.175
  0
LINE
  8
0
 10
91.1764
 20
156.175
 11
90.9175
 21
156.353
  0
LINE
  8
0
 10
90.9175
 20
156.353
 11
90.6497
 21
156.517
  0
LINE
  8
0
 10
90.6497
 20
156.517
 11
90.3737
 21
156.667
  0
LINE
  8
0
 10
90.3737
 20
156.667
 11
90.0901
 21
156.802
  0
LINE
  8
0
 10
90.0901
 20
156.802
 11
89.7999
 21
156.922
  0
LINE
  8
0
 10
89.7999
 20
156.922
 11
89.5038
 21
157.027
  0
LINE
  8
0
 10
89.5038
 20
157.027
 11
89.2026
 21
157.116
  0
LINE
  8
0
 10
89.2026
 20
157.116
 11
88.8972
 21
157.19
  0
LINE
  8
0
 10
88.8972
 20
157.19
 11
88.5883
 21
157.247
  0
LINE
  8
0
 10
88.5883
 20
157.247
 11
88.2769
 21
157.288
  0
LINE
  8
0
 10
88.2769
 20
157.288
 11
87.9637
 21
157.313
  0
LINE
  8
0
 10
87.9637
 20
157.313
 11
87.6497
 21
157.321
  0
LINE
  8
0
 10
87.6497
 20
157.321
 11
87.3357
 21
157.313
  0
LINE
  8
0
 10
87.3357
 20
157.313
 11
87.0225
 21
157.288
  0
LINE
  8
0
 10
87.0225
 20
157.288
 11
86.7111
 21
157.247
  0
LINE
  8
0
 10
86.7111
 20
157.247
 11
86.4022
 21
157.19
  0
LINE
  8
0
 10
86.4022
 20
157.19
 11
86.0968
 21
157.116
  0
LINE
  8
0
 10
86.0968
 20
157.116
 11
85.7956
 21
157.027
  0
LINE
  8
0
 10
85.7956
 20
157.027
 11
85.4995
 21
156.922
  0
LINE
  8
0
 10
85.4995
 20
156.922
 11
85.2093
 21
156.802
  0
LINE
  8
0
 10
85.2093
 20
156.802
 11
84.9258
 21
156.667
  0
LINE
  8
0
 10
84.9258
 20
156.667
 11
84.6497
 21
156.517
  0
LINE
  8
0
 10
84.6497
 20
156.517
 11
84.3819
 21
156.353
  0
LINE
  8
0
 10
84.3819
 20
156.353
 11
84.123
 21
156.175
  0
LINE
  8
0
 10
84.123
 20
156.175
 11
83.8738
 21
155.984
  0
LINE
  8
0
 10
83.8738
 20
155.984
 11
83.6349
 21
155.78
  0
LINE
  8
0
 10
83.6349
 20
155.78
 11
83.4071
 21
155.563
  0
LINE
  8
0
 10
83.4071
 20
155.563
 11
83.1908
 21
155.336
  0
LINE
  8
0
 10
83.1908
 20
155.336
 11
82.9868
 21
155.097
  0
LINE
  8
0
 10
82.9868
 20
155.097
 11
82.7956
 21
154.848
  0
LINE
  8
0
 10
82.7956
 20
154.848
 11
82.6177
 21
154.589
  0
LINE
  8
0
 10
82.6177
 20
154.589
 11
82.4536
 21
154.321
  0
LINE
  8
0
 10
82.4536
 20
154.321
 11
82.3037
 21
154.045
  0
LINE
  8
0
 10
82.3037
 20
154.045
 11
82.1684
 21
153.761
  0
LINE
  8
0
 10
82.1684
 20
153.761
 11
82.0482
 21
153.471
  0
LINE
  8
0
 10
82.0482
 20
153.471
 11
81.9434
 21
153.175
  0
LINE
  8
0
 10
81.9434
 20
153.175
 11
81.8542
 21
152.874
  0
LINE
  8
0
 10
81.8542
 20
152.874
 11
81.7808
 21
152.568
  0
LINE
  8
0
 10
81.7808
 20
152.568
 11
81.7236
 21
152.259
  0
LINE
  8
0
 10
81.7236
 20
152.259
 11
81.6826
 21
151.948
  0
LINE
  8
0
 10
81.6826
 20
151.948
 11
81.6579
 21
151.635
  0
LINE
  8
0
 10
81.6579
 20
151.635
 11
81.6497
 21
151.321
  0
LINE
  8
0
 10
81.6497
 20
151.321
 11
81.6579
 21
151.007
  0
LINE
  8
0
 10
81.6579
 20
151.007
 11
81.6826
 21
150.694
  0
LINE
  8
0
 10
81.6826
 20
150.694
 11
81.7236
 21
150.382
  0
LINE
  8
0
 10
81.7236
 20
150.382
 11
81.7808
 21
150.073
  0
LINE
  8
0
 10
81.7808
 20
150.073
 11
81.8542
 21
149.768
  0
LINE
  8
0
 10
81.8542
 20
149.768
 11
77.0431
 21
144.957
  0
LINE
  8
0
 10
77.0431
 20
144.957
 11
65.0223
 21
156.978
  0
LINE
  8
0
 10
65.0223
 20
156.978
 11
57.0218
 21
148.547
  0
LINE
  8
0
 10
57.0218
 20
148.547
 11
49.4736
 21
139.709
  0
LINE
  8
0
 10
49.4736
 20
139.709
 11
42.3981
 21
130.488
  0
LINE
  8
0
 10
42.3981
 20
130.488
 11
35.8151
 21
120.91
  0
LINE
  8
0
 10
35.8151
 20
120.91
 11
29.7423
 21
111
  0
LINE
  8
0
 10
29.7423
 20
111
 11
24.1964
 21
100.786
  0
LINE
  8
0
 10
24.1964
 20
100.786
 11
19.1929
 21
90.2955
  0
LINE
  8
0
 10
19.1929
 20
90.2955
 11
14.7451
 21
79.5575
  0
LINE
  8
0
 10
14.7451
 20
79.5575
 11
10.8654
 21
68.6016
  0
LINE
  8
0
 10
10.8654
 20
68.6016
 11
7.56442
 21
57.4576
  0
LINE
  8
0
 10
7.56442
 20
57.4576
 11
4.85121
 21
46.1562
  0
LINE
  8
0
 10
4.85121
 20
46.1562
 11
2.73315
 21
34.7281
  0
LINE
  8
0
 10
2.73315
 20
34.7281
 11
1.21614
 21
23.2053
  0
LINE
  8
0
 10
1.21614
 20
23.2053
 11
0.304245
 21
11.6184
  0
LINE
  8
0
 10
0.304245
 20
11.6184
 11
1.52588e-05
 21
0
  0
LINE
  8
0
 10
1.52588e-05
 20
0
 11
16.25
 21
0
  0
LINE
  8
0
 10
16.25
 20
0
 11
16.25
 21
6.93921
  0
ENDSEC
  0
SECTION
  2
OBJECTS
  0
DICTIONARY
  0
ENDSEC
  0
EOF
