  0
SECTION
  2
BLOCKS
  0
ENDSEC
  0
SECTION
  2
ENTITIES
  0
LINE
  8
0
 10
0.707108
 20
0.707107
 11
0.751009
 21
0.707107
  0
LINE
  8
0
 10
0.751009
 20
0.707107
 11
0.760882
 21
-2.43173e-06
  0
LINE
  8
0
 10
0.760882
 20
-2.43173e-06
 11
18
 21
-2.24052e-06
  0
LINE
  8
0
 10
18
 20
-2.24052e-06
 11
18
 21
-7.42688
  0
LINE
  8
0
 10
18
 20
-7.42688
 11
17.2221
 21
-7.84265
  0
LINE
  8
0
 10
17.2221
 20
-7.84265
 11
16.4645
 21
-8.46447
  0
LINE
  8
0
 10
16.4645
 20
-8.46447
 11
15.8427
 21
-9.22215
  0
LINE
  8
0
 10
15.8427
 20
-9.22215
 11
15.3806
 21
-10.0866
  0
LINE
  8
0
 10
15.3806
 20
-10.0866
 11
15.0961
 21
-11.0245
  0
LINE
  8
0
 10
15.0961
 20
-11.0245
 11
15
 21
-12
  0
LINE
  8
0
 10
15
 20
-12
 11
15.0961
 21
-12.9755
  0
LINE
  8
0
 10
15.0961
 20
-12.9755
 11
15.3806
 21
-13.9134
  0
LINE
  8
0
 10
15.3806
 20
-13.9134
 11
15.8427
 21
-14.7779
  0
LINE
  8
0
 10
15.8427
 20
-14.7779
 11
16.4645
 21
-15.5355
  0
LINE
  8
0
 10
16.4645
 20
-15.5355
 11
17.2221
 21
-16.1573
  0
LINE
  8
0
 10
17.2221
 20
-16.1573
 11
18.0866
 21
-16.6194
  0
LINE
  8
0
 10
18.0866
 20
-16.6194
 11
19.0245
 21
-16.9039
  0
LINE
  8
0
 10
19.0245
 20
-16.9039
 11
20
 21
-17
  0
LINE
  8
0
 10
20
 20
-17
 11
20.9755
 21
-16.9039
  0
LINE
  8
0
 10
20.9755
 20
-16.9039
 11
21.9134
 21
-16.6194
  0
LINE
  8
0
 10
21.9134
 20
-16.6194
 11
22.7779
 21
-16.1573
  0
LINE
  8
0
 10
22.7779
 20
-16.1573
 11
23.5355
 21
-15.5355
  0
LINE
  8
0
 10
23.5355
 20
-15.5355
 11
24.1573
 21
-14.7779
  0
LINE
  8
0
 10
24.1573
 20
-14.7779
 11
24.6194
 21
-13.9134
  0
LINE
  8
0
 10
24.6194
 20
-13.9134
 11
24.9039
 21
-12.9755
  0
LINE
  8
0
 10
24.9039
 20
-12.9755
 11
25
 21
-12
  0
LINE
  8
0
 10
25
 20
-12
 11
24.9039
 21
-11.0245
  0
LINE
  8
0
 10
24.9039
 20
-11.0245
 11
24.6194
 21
-10.0866
  0
LINE
  8
0
 10
24.6194
 20
-10.0866
 11
24.1573
 21
-9.22215
  0
LINE
  8
0
 10
24.1573
 20
-9.22215
 11
23.5355
 21
-8.46447
  0
LINE
  8
0
 10
23.5355
 20
-8.46447
 11
22.7779
 21
-7.84265
  0
LINE
  8
0
 10
22.7779
 20
-7.84265
 11
22
 21
-7.42688
  0
LINE
  8
0
 10
22
 20
-7.42688
 11
22
 21
-2.19616e-06
  0
LINE
  8
0
 10
22
 20
-2.19616e-06
 11
39.3372
 21
-2.00386e-06
  0
LINE
  8
0
 10
39.3372
 20
-2.00386e-06
 11
39.3064
 21
2.2077
  0
LINE
  8
0
 10
39.3064
 20
2.2077
 11
39.6696
 21
11.6614
  0
LINE
  8
0
 10
39.6696
 20
11.6614
 11
40.527
 21
21.0832
  0
LINE
  8
0
 10
40.527
 20
21.0832
 11
41.8764
 21
30.4472
  0
LINE
  8
0
 10
41.8764
 20
30.4472
 11
43.714
 21
39.7278
  0
LINE
  8
0
 10
43.714
 20
39.7278
 11
46.0348
 21
48.8994
  0
LINE
  8
0
 10
46.0348
 20
48.8994
 11
48.8324
 21
57.937
  0
LINE
  8
0
 10
48.8324
 20
57.937
 11
52.0992
 21
66.8159
  0
LINE
  8
0
 10
52.0992
 20
66.8159
 11
55.8261
 21
75.5115
  0
LINE
  8
0
 10
55.8261
 20
75.5115
 11
60.0031
 21
84.0003
  0
LINE
  8
0
 10
60.0031
 20
84.0003
 11
64.6186
 21
92.2587
  0
LINE
  8
0
 10
64.6186
 20
92.2587
 11
69.66
 21
100.264
  0
LINE
  8
0
 10
69.66
 20
100.264
 11
75.1135
 21
107.995
  0
LINE
  8
0
 10
75.1135
 20
107.995
 11
80.964
 21
115.43
  0
LINE
  8
0
 10
80.964
 20
115.43
 11
87.1957
 21
122.548
  0
LINE
  8
0
 10
87.1957
 20
122.548
 11
93.7914
 21
129.331
  0
LINE
  8
0
 10
93.7914
 20
129.331
 11
81.7138
 21
141.707
  0
LINE
  8
0
 10
81.7138
 20
141.707
 11
87.0291
 21
146.894
  0
LINE
  8
0
 10
87.0291
 20
146.894
 11
87.87
 21
146.628
  0
LINE
  8
0
 10
87.87
 20
146.628
 11
88.8442
 21
146.52
  0
LINE
  8
0
 10
88.8442
 20
146.52
 11
89.8207
 21
146.604
  0
LINE
  8
0
 10
89.8207
 20
146.604
 11
90.7621
 21
146.877
  0
LINE
  8
0
 10
90.7621
 20
146.877
 11
91.6321
 21
147.329
  0
LINE
  8
0
 10
91.6321
 20
147.329
 11
92.3973
 21
147.941
  0
LINE
  8
0
 10
92.3973
 20
147.941
 11
93.0284
 21
148.691
  0
LINE
  8
0
 10
93.0284
 20
148.691
 11
93.5009
 21
149.55
  0
LINE
  8
0
 10
93.5009
 20
149.55
 11
93.7969
 21
150.484
  0
LINE
  8
0
 10
93.7969
 20
150.484
 11
93.9049
 21
151.458
  0
LINE
  8
0
 10
93.9049
 20
151.458
 11
93.8207
 21
152.435
  0
LINE
  8
0
 10
93.8207
 20
152.435
 11
93.5477
 21
153.376
  0
LINE
  8
0
 10
93.5477
 20
153.376
 11
93.0962
 21
154.246
  0
LINE
  8
0
 10
93.0962
 20
154.246
 11
92.4837
 21
155.012
  0
LINE
  8
0
 10
92.4837
 20
155.012
 11
91.7337
 21
155.643
  0
LINE
  8
0
 10
91.7337
 20
155.643
 11
90.875
 21
156.115
  0
LINE
  8
0
 10
90.875
 20
156.115
 11
89.9405
 21
156.411
  0
LINE
  8
0
 10
89.9405
 20
156.411
 11
88.9663
 21
156.519
  0
LINE
  8
0
 10
88.9663
 20
156.519
 11
87.9898
 21
156.435
  0
LINE
  8
0
 10
87.9898
 20
156.435
 11
87.0484
 21
156.162
  0
LINE
  8
0
 10
87.0484
 20
156.162
 11
86.1784
 21
155.711
  0
LINE
  8
0
 10
86.1784
 20
155.711
 11
85.4132
 21
155.098
  0
LINE
  8
0
 10
85.4132
 20
155.098
 11
84.7822
 21
154.348
  0
LINE
  8
0
 10
84.7822
 20
154.348
 11
84.3096
 21
153.489
  0
LINE
  8
0
 10
84.3096
 20
153.489
 11
84.0136
 21
152.555
  0
LINE
  8
0
 10
84.0136
 20
152.555
 11
83.9056
 21
151.581
  0
LINE
  8
0
 10
83.9056
 20
151.581
 11
83.9898
 21
150.604
  0
LINE
  8
0
 10
83.9898
 20
150.604
 11
84.2355
 21
149.757
  0
LINE
  8
0
 10
84.2355
 20
149.757
 11
78.9201
 21
144.57
  0
LINE
  8
0
 10
78.9201
 20
144.57
 11
66.8425
 21
156.946
  0
LINE
  8
0
 10
66.8425
 20
156.946
 11
58.8385
 21
148.716
  0
LINE
  8
0
 10
58.8385
 20
148.716
 11
51.2761
 21
140.077
  0
LINE
  8
0
 10
51.2761
 20
140.077
 11
44.1763
 21
131.055
  0
LINE
  8
0
 10
44.1763
 20
131.055
 11
39.2929
 21
124.132
  0
LINE
  8
0
 10
39.2929
 20
124.132
 11
39.2929
 21
143.293
  0
LINE
  8
0
 10
39.2929
 20
143.293
 11
22
 21
143.293
  0
LINE
  8
0
 10
22
 20
143.293
 11
22
 21
151.427
  0
LINE
  8
0
 10
22
 20
151.427
 11
22.7779
 21
151.843
  0
LINE
  8
0
 10
22.7779
 20
151.843
 11
23.5355
 21
152.464
  0
LINE
  8
0
 10
23.5355
 20
152.464
 11
24.1573
 21
153.222
  0
LINE
  8
0
 10
24.1573
 20
153.222
 11
24.6194
 21
154.087
  0
LINE
  8
0
 10
24.6194
 20
154.087
 11
24.9039
 21
155.025
  0
LINE
  8
0
 10
24.9039
 20
155.025
 11
25
 21
156
  0
LINE
  8
0
 10
25
 20
156
 11
24.9039
 21
156.975
  0
LINE
  8
0
 10
24.9039
 20
156.975
 11
24.6194
 21
157.913
  0
LINE
  8
0
 10
24.6194
 20
157.913
 11
24.1573
 21
158.778
  0
LINE
  8
0
 10
24.1573
 20
158.778
 11
23.5355
 21
159.536
  0
LINE
  8
0
 10
23.5355
 20
159.536
 11
22.7779
 21
160.157
  0
LINE
  8
0
 10
22.7779
 20
160.157
 11
21.9134
 21
160.619
  0
LINE
  8
0
 10
21.9134
 20
160.619
 11
20.9755
 21
160.904
  0
LINE
  8
0
 10
20.9755
 20
160.904
 11
20
 21
161
  0
LINE
  8
0
 10
20
 20
161
 11
19.0245
 21
160.904
  0
LINE
  8
0
 10
19.0245
 20
160.904
 11
18.0866
 21
160.619
  0
LINE
  8
0
 10
18.0866
 20
160.619
 11
17.2221
 21
160.157
  0
LINE
  8
0
 10
17.2221
 20
160.157
 11
16.4645
 21
159.536
  0
LINE
  8
0
 10
16.4645
 20
159.536
 11
15.8427
 21
158.778
  0
LINE
  8
0
 10
15.8427
 20
158.778
 11
15.3806
 21
157.913
  0
LINE
  8
0
 10
15.3806
 20
157.913
 11
15.0961
 21
156.975
  0
LINE
  8
0
 10
15.0961
 20
156.975
 11
15
 21
156
  0
LINE
  8
0
 10
15
 20
156
 11
15.0961
 21
155.025
  0
LINE
  8
0
 10
15.0961
 20
155.025
 11
15.3806
 21
154.087
  0
LINE
  8
0
 10
15.3806
 20
154.087
 11
15.8427
 21
153.222
  0
LINE
  8
0
 10
15.8427
 20
153.222
 11
16.4645
 21
152.464
  0
LINE
  8
0
 10
16.4645
 20
152.464
 11
17.2221
 21
151.843
  0
LINE
  8
0
 10
17.2221
 20
151.843
 11
18
 21
151.427
  0
LINE
  8
0
 10
18
 20
151.427
 11
18
 21
143.293
  0
LINE
  8
0
 10
18
 20
143.293
 11
0.707108
 21
143.293
  0
LINE
  8
0
 10
0.707108
 20
143.293
 11
0.707108
 21
0.707107
  0
LINE
  8
0
 10
5.7
 20
23.25
 11
5.7
 21
65.9079
  0
LINE
  8
0
 10
5.7
 20
65.9079
 11
6.09423
 21
66.0475
  0
LINE
  8
0
 10
6.09423
 20
66.0475
 11
8.35314
 21
66.7167
  0
LINE
  8
0
 10
8.35314
 20
66.7167
 11
10.644
 21
67.2666
  0
LINE
  8
0
 10
10.644
 20
67.2666
 11
12.9604
 21
67.696
  0
LINE
  8
0
 10
12.9604
 20
67.696
 11
15.2962
 21
68.0035
  0
LINE
  8
0
 10
15.2962
 20
68.0035
 11
17.6449
 21
68.1883
  0
LINE
  8
0
 10
17.6449
 20
68.1883
 11
20
 21
68.25
  0
LINE
  8
0
 10
20
 20
68.25
 11
22.3551
 21
68.1883
  0
LINE
  8
0
 10
22.3551
 20
68.1883
 11
24.7038
 21
68.0035
  0
LINE
  8
0
 10
24.7038
 20
68.0035
 11
27.0396
 21
67.696
  0
LINE
  8
0
 10
27.0396
 20
67.696
 11
29.356
 21
67.2666
  0
LINE
  8
0
 10
29.356
 20
67.2666
 11
31.6469
 21
66.7167
  0
LINE
  8
0
 10
31.6469
 20
66.7167
 11
33.9058
 21
66.0475
  0
LINE
  8
0
 10
33.9058
 20
66.0475
 11
36.1266
 21
65.2611
  0
LINE
  8
0
 10
36.1266
 20
65.2611
 11
38.3031
 21
64.3595
  0
LINE
  8
0
 10
38.3031
 20
64.3595
 11
40.4296
 21
63.3453
  0
LINE
  8
0
 10
40.4296
 20
63.3453
 11
42.5
 21
62.2211
  0
LINE
  8
0
 10
42.5
 20
62.2211
 11
42.6008
 21
62.1594
  0
LINE
  8
0
 10
42.6008
 20
62.1594
 11
41.1657
 21
58.1068
  0
LINE
  8
0
 10
41.1657
 20
58.1068
 11
38.3697
 21
48.6677
  0
LINE
  8
0
 10
38.3697
 20
48.6677
 11
36.0716
 21
39.0952
  0
LINE
  8
0
 10
36.0716
 20
39.0952
 11
34.2776
 21
29.4155
  0
LINE
  8
0
 10
34.2776
 20
29.4155
 11
33.4658
 21
23.25
  0
LINE
  8
0
 10
33.4658
 20
23.25
 11
5.7
 21
23.25
  0
LINE
  8
0
 10
17.5
 20
114
 11
17.6903
 21
114.957
  0
LINE
  8
0
 10
17.6903
 20
114.957
 11
18.2322
 21
115.768
  0
LINE
  8
0
 10
18.2322
 20
115.768
 11
19.0433
 21
116.31
  0
LINE
  8
0
 10
19.0433
 20
116.31
 11
20
 21
116.5
  0
LINE
  8
0
 10
20
 20
116.5
 11
20.9567
 21
116.31
  0
LINE
  8
0
 10
20.9567
 20
116.31
 11
21.7678
 21
115.768
  0
LINE
  8
0
 10
21.7678
 20
115.768
 11
22.3097
 21
114.957
  0
LINE
  8
0
 10
22.3097
 20
114.957
 11
22.5
 21
114
  0
LINE
  8
0
 10
22.5
 20
114
 11
22.3097
 21
113.043
  0
LINE
  8
0
 10
22.3097
 20
113.043
 11
21.7678
 21
112.232
  0
LINE
  8
0
 10
21.7678
 20
112.232
 11
20.9567
 21
111.69
  0
LINE
  8
0
 10
20.9567
 20
111.69
 11
20
 21
111.5
  0
LINE
  8
0
 10
20
 20
111.5
 11
19.0433
 21
111.69
  0
LINE
  8
0
 10
19.0433
 20
111.69
 11
18.2322
 21
112.232
  0
LINE
  8
0
 10
18.2322
 20
112.232
 11
17.6903
 21
113.043
  0
LINE
  8
0
 10
17.6903
 20
113.043
 11
17.5
 21
114
  0
LINE
  8
0
 10
57.9951
 20
120.657
 11
58.1854
 21
121.614
  0
LINE
  8
0
 10
58.1854
 20
121.614
 11
58.7273
 21
122.425
  0
LINE
  8
0
 10
58.7273
 20
122.425
 11
59.5384
 21
122.967
  0
LINE
  8
0
 10
59.5384
 20
122.967
 11
60.4951
 21
123.157
  0
LINE
  8
0
 10
60.4951
 20
123.157
 11
61.4518
 21
122.967
  0
LINE
  8
0
 10
61.4518
 20
122.967
 11
62.2628
 21
122.425
  0
LINE
  8
0
 10
62.2628
 20
122.425
 11
62.8048
 21
121.614
  0
LINE
  8
0
 10
62.8048
 20
121.614
 11
62.9951
 21
120.657
  0
LINE
  8
0
 10
62.9951
 20
120.657
 11
62.8048
 21
119.701
  0
LINE
  8
0
 10
62.8048
 20
119.701
 11
62.2628
 21
118.89
  0
LINE
  8
0
 10
62.2628
 20
118.89
 11
61.4518
 21
118.348
  0
LINE
  8
0
 10
61.4518
 20
118.348
 11
60.4951
 21
118.157
  0
LINE
  8
0
 10
60.4951
 20
118.157
 11
59.5384
 21
118.348
  0
LINE
  8
0
 10
59.5384
 20
118.348
 11
58.7273
 21
118.89
  0
LINE
  8
0
 10
58.7273
 20
118.89
 11
58.1854
 21
119.701
  0
LINE
  8
0
 10
58.1854
 20
119.701
 11
57.9951
 21
120.657
  0
LINE
  8
0
 10
14.675
 20
44.3251
 11
14.8953
 21
44.3852
  0
LINE
  8
0
 10
14.8953
 20
44.3852
 11
16.0146
 21
44.6274
  0
LINE
  8
0
 10
16.0146
 20
44.6274
 11
17.1452
 21
44.8096
  0
LINE
  8
0
 10
17.1452
 20
44.8096
 11
18.2839
 21
44.9314
  0
LINE
  8
0
 10
18.2839
 20
44.9314
 11
19.4274
 21
44.9924
  0
LINE
  8
0
 10
19.4274
 20
44.9924
 11
20.5726
 21
44.9924
  0
LINE
  8
0
 10
20.5726
 20
44.9924
 11
21.7161
 21
44.9314
  0
LINE
  8
0
 10
21.7161
 20
44.9314
 11
22.8548
 21
44.8096
  0
LINE
  8
0
 10
22.8548
 20
44.8096
 11
23.9854
 21
44.6274
  0
LINE
  8
0
 10
23.9854
 20
44.6274
 11
25.1047
 21
44.3852
  0
LINE
  8
0
 10
25.1047
 20
44.3852
 11
26.2095
 21
44.0838
  0
LINE
  8
0
 10
26.2095
 20
44.0838
 11
27.2967
 21
43.724
  0
LINE
  8
0
 10
27.2967
 20
43.724
 11
28.3632
 21
43.3068
  0
LINE
  8
0
 10
28.3632
 20
43.3068
 11
29.4059
 21
42.8334
  0
LINE
  8
0
 10
29.4059
 20
42.8334
 11
30.422
 21
42.3051
  0
LINE
  8
0
 10
30.422
 20
42.3051
 11
30.5188
 21
42.2481
  0
LINE
  8
0
 10
30.5188
 20
42.2481
 11
32.4413
 21
50.2562
  0
LINE
  8
0
 10
32.4413
 20
50.2562
 11
34.6052
 21
57.5612
  0
LINE
  8
0
 10
34.6052
 20
57.5612
 11
34.3793
 21
57.6634
  0
LINE
  8
0
 10
34.3793
 20
57.6634
 11
32.5451
 21
58.3787
  0
LINE
  8
0
 10
32.5451
 20
58.3787
 11
30.6756
 21
58.9956
  0
LINE
  8
0
 10
30.6756
 20
58.9956
 11
28.776
 21
59.5123
  0
LINE
  8
0
 10
28.776
 20
59.5123
 11
26.8516
 21
59.9275
  0
LINE
  8
0
 10
26.8516
 20
59.9275
 11
24.9078
 21
60.2398
  0
LINE
  8
0
 10
24.9078
 20
60.2398
 11
22.9502
 21
60.4486
  0
LINE
  8
0
 10
22.9502
 20
60.4486
 11
20.9843
 21
60.5531
  0
LINE
  8
0
 10
20.9843
 20
60.5531
 11
19.0157
 21
60.5531
  0
LINE
  8
0
 10
19.0157
 20
60.5531
 11
17.0498
 21
60.4486
  0
LINE
  8
0
 10
17.0498
 20
60.4486
 11
15.0922
 21
60.2398
  0
LINE
  8
0
 10
15.0922
 20
60.2398
 11
14.675
 21
60.1728
  0
LINE
  8
0
 10
14.675
 20
60.1728
 11
14.675
 21
44.3251
  0
LINE
  8
0
 10
15.25
 20
30
 11
15.3538
 21
29.0124
  0
LINE
  8
0
 10
15.3538
 20
29.0124
 11
15.6607
 21
28.068
  0
LINE
  8
0
 10
15.6607
 20
28.068
 11
16.1572
 21
27.208
  0
LINE
  8
0
 10
16.1572
 20
27.208
 11
16.8216
 21
26.4701
  0
LINE
  8
0
 10
16.8216
 20
26.4701
 11
17.625
 21
25.8864
  0
LINE
  8
0
 10
17.625
 20
25.8864
 11
18.5322
 21
25.4825
  0
LINE
  8
0
 10
18.5322
 20
25.4825
 11
19.5035
 21
25.276
  0
LINE
  8
0
 10
19.5035
 20
25.276
 11
20.4965
 21
25.276
  0
LINE
  8
0
 10
20.4965
 20
25.276
 11
21.4678
 21
25.4825
  0
LINE
  8
0
 10
21.4678
 20
25.4825
 11
22.375
 21
25.8864
  0
LINE
  8
0
 10
22.375
 20
25.8864
 11
23.1784
 21
26.4701
  0
LINE
  8
0
 10
23.1784
 20
26.4701
 11
23.8428
 21
27.208
  0
LINE
  8
0
 10
23.8428
 20
27.208
 11
24.3393
 21
28.068
  0
LINE
  8
0
 10
24.3393
 20
28.068
 11
24.6462
 21
29.0124
  0
LINE
  8
0
 10
24.6462
 20
29.0124
 11
24.75
 21
30
  0
LINE
  8
0
 10
24.75
 20
30
 11
24.6462
 21
30.9876
  0
LINE
  8
0
 10
24.6462
 20
30.9876
 11
24.3393
 21
31.932
  0
LINE
  8
0
 10
24.3393
 20
31.932
 11
23.8428
 21
32.792
  0
LINE
  8
0
 10
23.8428
 20
32.792
 11
23.1784
 21
33.5299
  0
LINE
  8
0
 10
23.1784
 20
33.5299
 11
22.375
 21
34.1136
  0
LINE
  8
0
 10
22.375
 20
34.1136
 11
21.4678
 21
34.5175
  0
LINE
  8
0
 10
21.4678
 20
34.5175
 11
20.4965
 21
34.724
  0
LINE
  8
0
 10
20.4965
 20
34.724
 11
19.5035
 21
34.724
  0
LINE
  8
0
 10
19.5035
 20
34.724
 11
18.5322
 21
34.5175
  0
LINE
  8
0
 10
18.5322
 20
34.5175
 11
17.625
 21
34.1136
  0
LINE
  8
0
 10
17.625
 20
34.1136
 11
16.8216
 21
33.5299
  0
LINE
  8
0
 10
16.8216
 20
33.5299
 11
16.1572
 21
32.792
  0
LINE
  8
0
 10
16.1572
 20
32.792
 11
15.6607
 21
31.932
  0
LINE
  8
0
 10
15.6607
 20
31.932
 11
15.3538
 21
30.9876
  0
LINE
  8
0
 10
15.3538
 20
30.9876
 11
15.25
 21
30
  0
ENDSEC
  0
SECTION
  2
OBJECTS
  0
DICTIONARY
  0
ENDSEC
  0
EOF
