  0
SECTION
  2
BLOCKS
  0
ENDSEC
  0
SECTION
  2
ENTITIES
  0
LINE
  8
0
 10
-53.9049
 20
151.458
 11
-53.7969
 21
150.484
  0
LINE
  8
0
 10
-53.7969
 20
150.484
 11
-53.5009
 21
149.55
  0
LINE
  8
0
 10
-53.5009
 20
149.55
 11
-53.0284
 21
148.691
  0
LINE
  8
0
 10
-53.0284
 20
148.691
 11
-52.3973
 21
147.941
  0
LINE
  8
0
 10
-52.3973
 20
147.941
 11
-51.6321
 21
147.329
  0
LINE
  8
0
 10
-51.6321
 20
147.329
 11
-50.7621
 21
146.877
  0
LINE
  8
0
 10
-50.7621
 20
146.877
 11
-49.8207
 21
146.604
  0
LINE
  8
0
 10
-49.8207
 20
146.604
 11
-48.8442
 21
146.52
  0
LINE
  8
0
 10
-48.8442
 20
146.52
 11
-47.87
 21
146.628
  0
LINE
  8
0
 10
-47.87
 20
146.628
 11
-47.0291
 21
146.894
  0
LINE
  8
0
 10
-47.0291
 20
146.894
 11
-41.7138
 21
141.707
  0
LINE
  8
0
 10
-41.7138
 20
141.707
 11
-53.8224
 21
129.299
  0
LINE
  8
0
 10
-53.8224
 20
129.299
 11
-52.2208
 21
127.779
  0
LINE
  8
0
 10
-52.2208
 20
127.779
 11
-45.7085
 21
120.917
  0
LINE
  8
0
 10
-45.7085
 20
120.917
 11
-39.5642
 21
113.723
  0
LINE
  8
0
 10
-39.5642
 20
113.723
 11
-33.8049
 21
106.217
  0
LINE
  8
0
 10
-33.8049
 20
106.217
 11
-28.4463
 21
98.4201
  0
LINE
  8
0
 10
-28.4463
 20
98.4201
 11
-23.5031
 21
90.3535
  0
LINE
  8
0
 10
-23.5031
 20
90.3535
 11
-18.9888
 21
82.0393
  0
LINE
  8
0
 10
-18.9888
 20
82.0393
 11
-14.9159
 21
73.5002
  0
LINE
  8
0
 10
-14.9159
 20
73.5002
 11
-11.2954
 21
64.7596
  0
LINE
  8
0
 10
-11.2954
 20
64.7596
 11
-8.13734
 21
55.8416
  0
LINE
  8
0
 10
-8.13734
 20
55.8416
 11
-5.45035
 21
46.7704
  0
LINE
  8
0
 10
-5.45035
 20
46.7704
 11
-3.24179
 21
37.5711
  0
LINE
  8
0
 10
-3.24179
 20
37.5711
 11
-1.51772
 21
28.2688
  0
LINE
  8
0
 10
-1.51772
 20
28.2688
 11
-0.282837
 21
18.889
  0
LINE
  8
0
 10
-0.282837
 20
18.889
 11
0.459442
 21
9.45748
  0
LINE
  8
0
 10
0.459442
 20
9.45748
 11
0.707092
 21
0
  0
LINE
  8
0
 10
0.707092
 20
0
 11
18
 21
0
  0
LINE
  8
0
 10
18
 20
0
 11
18
 21
-7.42688
  0
LINE
  8
0
 10
18
 20
-7.42688
 11
17.2221
 21
-7.84265
  0
LINE
  8
0
 10
17.2221
 20
-7.84265
 11
16.4645
 21
-8.46447
  0
LINE
  8
0
 10
16.4645
 20
-8.46447
 11
15.8427
 21
-9.22215
  0
LINE
  8
0
 10
15.8427
 20
-9.22215
 11
15.3806
 21
-10.0866
  0
LINE
  8
0
 10
15.3806
 20
-10.0866
 11
15.0961
 21
-11.0245
  0
LINE
  8
0
 10
15.0961
 20
-11.0245
 11
15
 21
-12
  0
LINE
  8
0
 10
15
 20
-12
 11
15.0961
 21
-12.9755
  0
LINE
  8
0
 10
15.0961
 20
-12.9755
 11
15.3806
 21
-13.9134
  0
LINE
  8
0
 10
15.3806
 20
-13.9134
 11
15.8427
 21
-14.7779
  0
LINE
  8
0
 10
15.8427
 20
-14.7779
 11
16.4645
 21
-15.5355
  0
LINE
  8
0
 10
16.4645
 20
-15.5355
 11
17.2221
 21
-16.1573
  0
LINE
  8
0
 10
17.2221
 20
-16.1573
 11
18.0866
 21
-16.6194
  0
LINE
  8
0
 10
18.0866
 20
-16.6194
 11
19.0245
 21
-16.9039
  0
LINE
  8
0
 10
19.0245
 20
-16.9039
 11
20
 21
-17
  0
LINE
  8
0
 10
20
 20
-17
 11
20.9755
 21
-16.9039
  0
LINE
  8
0
 10
20.9755
 20
-16.9039
 11
21.9134
 21
-16.6194
  0
LINE
  8
0
 10
21.9134
 20
-16.6194
 11
22.7779
 21
-16.1573
  0
LINE
  8
0
 10
22.7779
 20
-16.1573
 11
23.5355
 21
-15.5355
  0
LINE
  8
0
 10
23.5355
 20
-15.5355
 11
24.1573
 21
-14.7779
  0
LINE
  8
0
 10
24.1573
 20
-14.7779
 11
24.6194
 21
-13.9134
  0
LINE
  8
0
 10
24.6194
 20
-13.9134
 11
24.9039
 21
-12.9755
  0
LINE
  8
0
 10
24.9039
 20
-12.9755
 11
25
 21
-12
  0
LINE
  8
0
 10
25
 20
-12
 11
24.9039
 21
-11.0245
  0
LINE
  8
0
 10
24.9039
 20
-11.0245
 11
24.6194
 21
-10.0866
  0
LINE
  8
0
 10
24.6194
 20
-10.0866
 11
24.1573
 21
-9.22215
  0
LINE
  8
0
 10
24.1573
 20
-9.22215
 11
23.5355
 21
-8.46447
  0
LINE
  8
0
 10
23.5355
 20
-8.46447
 11
22.7779
 21
-7.84265
  0
LINE
  8
0
 10
22.7779
 20
-7.84265
 11
22
 21
-7.42688
  0
LINE
  8
0
 10
22
 20
-7.42688
 11
22
 21
0
  0
LINE
  8
0
 10
22
 20
0
 11
39.2929
 21
0
  0
LINE
  8
0
 10
39.2929
 20
0
 11
39.2744
 21
0.707107
  0
LINE
  8
0
 10
39.2744
 20
0.707107
 11
39.2929
 21
0.707107
  0
LINE
  8
0
 10
39.2929
 20
0.707107
 11
39.2929
 21
143.293
  0
LINE
  8
0
 10
39.2929
 20
143.293
 11
22
 21
143.293
  0
LINE
  8
0
 10
22
 20
143.293
 11
22
 21
151.427
  0
LINE
  8
0
 10
22
 20
151.427
 11
22.7779
 21
151.843
  0
LINE
  8
0
 10
22.7779
 20
151.843
 11
23.5355
 21
152.464
  0
LINE
  8
0
 10
23.5355
 20
152.464
 11
24.1573
 21
153.222
  0
LINE
  8
0
 10
24.1573
 20
153.222
 11
24.6194
 21
154.087
  0
LINE
  8
0
 10
24.6194
 20
154.087
 11
24.9039
 21
155.025
  0
LINE
  8
0
 10
24.9039
 20
155.025
 11
25
 21
156
  0
LINE
  8
0
 10
25
 20
156
 11
24.9039
 21
156.975
  0
LINE
  8
0
 10
24.9039
 20
156.975
 11
24.6194
 21
157.913
  0
LINE
  8
0
 10
24.6194
 20
157.913
 11
24.1573
 21
158.778
  0
LINE
  8
0
 10
24.1573
 20
158.778
 11
23.5355
 21
159.536
  0
LINE
  8
0
 10
23.5355
 20
159.536
 11
22.7779
 21
160.157
  0
LINE
  8
0
 10
22.7779
 20
160.157
 11
21.9134
 21
160.619
  0
LINE
  8
0
 10
21.9134
 20
160.619
 11
20.9755
 21
160.904
  0
LINE
  8
0
 10
20.9755
 20
160.904
 11
20
 21
161
  0
LINE
  8
0
 10
20
 20
161
 11
19.0245
 21
160.904
  0
LINE
  8
0
 10
19.0245
 20
160.904
 11
18.0866
 21
160.619
  0
LINE
  8
0
 10
18.0866
 20
160.619
 11
17.2221
 21
160.157
  0
LINE
  8
0
 10
17.2221
 20
160.157
 11
16.4645
 21
159.536
  0
LINE
  8
0
 10
16.4645
 20
159.536
 11
15.8427
 21
158.778
  0
LINE
  8
0
 10
15.8427
 20
158.778
 11
15.3806
 21
157.913
  0
LINE
  8
0
 10
15.3806
 20
157.913
 11
15.0961
 21
156.975
  0
LINE
  8
0
 10
15.0961
 20
156.975
 11
15
 21
156
  0
LINE
  8
0
 10
15
 20
156
 11
15.0961
 21
155.025
  0
LINE
  8
0
 10
15.0961
 20
155.025
 11
15.3806
 21
154.087
  0
LINE
  8
0
 10
15.3806
 20
154.087
 11
15.8427
 21
153.222
  0
LINE
  8
0
 10
15.8427
 20
153.222
 11
16.4645
 21
152.464
  0
LINE
  8
0
 10
16.4645
 20
152.464
 11
17.2221
 21
151.843
  0
LINE
  8
0
 10
17.2221
 20
151.843
 11
18
 21
151.427
  0
LINE
  8
0
 10
18
 20
151.427
 11
18
 21
143.293
  0
LINE
  8
0
 10
18
 20
143.293
 11
0.707108
 21
143.293
  0
LINE
  8
0
 10
0.707108
 20
143.293
 11
0.707108
 21
124.102
  0
LINE
  8
0
 10
0.707108
 20
124.102
 11
-2.58832
 21
128.897
  0
LINE
  8
0
 10
-2.58832
 20
128.897
 11
-9.57741
 21
138.005
  0
LINE
  8
0
 10
-9.57741
 20
138.005
 11
-17.0336
 21
146.736
  0
LINE
  8
0
 10
-17.0336
 20
146.736
 11
-24.9365
 21
155.063
  0
LINE
  8
0
 10
-24.9365
 20
155.063
 11
-26.8801
 21
156.908
  0
LINE
  8
0
 10
-26.8801
 20
156.908
 11
-38.9201
 21
144.57
  0
LINE
  8
0
 10
-38.9201
 20
144.57
 11
-44.2355
 21
149.757
  0
LINE
  8
0
 10
-44.2355
 20
149.757
 11
-43.9898
 21
150.604
  0
LINE
  8
0
 10
-43.9898
 20
150.604
 11
-43.9056
 21
151.581
  0
LINE
  8
0
 10
-43.9056
 20
151.581
 11
-44.0136
 21
152.555
  0
LINE
  8
0
 10
-44.0136
 20
152.555
 11
-44.3096
 21
153.489
  0
LINE
  8
0
 10
-44.3096
 20
153.489
 11
-44.7822
 21
154.348
  0
LINE
  8
0
 10
-44.7822
 20
154.348
 11
-45.4132
 21
155.098
  0
LINE
  8
0
 10
-45.4132
 20
155.098
 11
-46.1784
 21
155.711
  0
LINE
  8
0
 10
-46.1784
 20
155.711
 11
-47.0484
 21
156.162
  0
LINE
  8
0
 10
-47.0484
 20
156.162
 11
-47.9898
 21
156.435
  0
LINE
  8
0
 10
-47.9898
 20
156.435
 11
-48.9663
 21
156.519
  0
LINE
  8
0
 10
-48.9663
 20
156.519
 11
-49.9405
 21
156.411
  0
LINE
  8
0
 10
-49.9405
 20
156.411
 11
-50.875
 21
156.115
  0
LINE
  8
0
 10
-50.875
 20
156.115
 11
-51.7337
 21
155.643
  0
LINE
  8
0
 10
-51.7337
 20
155.643
 11
-52.4837
 21
155.012
  0
LINE
  8
0
 10
-52.4837
 20
155.012
 11
-53.0962
 21
154.246
  0
LINE
  8
0
 10
-53.0962
 20
154.246
 11
-53.5477
 21
153.376
  0
LINE
  8
0
 10
-53.5477
 20
153.376
 11
-53.8207
 21
152.435
  0
LINE
  8
0
 10
-53.8207
 20
152.435
 11
-53.9049
 21
151.458
  0
LINE
  8
0
 10
-2.60081
 20
62.1594
 11
-2.5
 21
62.2211
  0
LINE
  8
0
 10
-2.5
 20
62.2211
 11
-0.429572
 21
63.3453
  0
LINE
  8
0
 10
-0.429572
 20
63.3453
 11
1.69685
 21
64.3595
  0
LINE
  8
0
 10
1.69685
 20
64.3595
 11
3.87344
 21
65.2611
  0
LINE
  8
0
 10
3.87344
 20
65.2611
 11
6.09423
 21
66.0475
  0
LINE
  8
0
 10
6.09423
 20
66.0475
 11
8.35314
 21
66.7167
  0
LINE
  8
0
 10
8.35314
 20
66.7167
 11
10.644
 21
67.2666
  0
LINE
  8
0
 10
10.644
 20
67.2666
 11
12.9604
 21
67.696
  0
LINE
  8
0
 10
12.9604
 20
67.696
 11
15.2962
 21
68.0035
  0
LINE
  8
0
 10
15.2962
 20
68.0035
 11
17.6449
 21
68.1883
  0
LINE
  8
0
 10
17.6449
 20
68.1883
 11
20
 21
68.25
  0
LINE
  8
0
 10
20
 20
68.25
 11
22.3551
 21
68.1883
  0
LINE
  8
0
 10
22.3551
 20
68.1883
 11
24.7038
 21
68.0035
  0
LINE
  8
0
 10
24.7038
 20
68.0035
 11
27.0396
 21
67.696
  0
LINE
  8
0
 10
27.0396
 20
67.696
 11
29.356
 21
67.2666
  0
LINE
  8
0
 10
29.356
 20
67.2666
 11
31.6469
 21
66.7167
  0
LINE
  8
0
 10
31.6469
 20
66.7167
 11
32.3
 21
66.5232
  0
LINE
  8
0
 10
32.3
 20
66.5232
 11
32.3
 21
23.25
  0
LINE
  8
0
 10
32.3
 20
23.25
 11
6.53416
 21
23.25
  0
LINE
  8
0
 10
6.53416
 20
23.25
 11
5.72244
 21
29.4155
  0
LINE
  8
0
 10
5.72244
 20
29.4155
 11
3.92844
 21
39.0952
  0
LINE
  8
0
 10
3.92844
 20
39.0952
 11
1.63028
 21
48.6677
  0
LINE
  8
0
 10
1.63028
 20
48.6677
 11
-1.16571
 21
58.1068
  0
LINE
  8
0
 10
-1.16571
 20
58.1068
 11
-2.60081
 21
62.1594
  0
ENDSEC
  0
SECTION
  2
OBJECTS
  0
DICTIONARY
  0
ENDSEC
  0
EOF
