  0
SECTION
  2
BLOCKS
  0
ENDSEC
  0
SECTION
  2
ENTITIES
  0
LINE
  8
0
 10
-53.8224
 20
129.299
 11
-52.2208
 21
127.779
  0
LINE
  8
0
 10
-52.2208
 20
127.779
 11
-45.7085
 21
120.917
  0
LINE
  8
0
 10
-45.7085
 20
120.917
 11
-39.5642
 21
113.723
  0
LINE
  8
0
 10
-39.5642
 20
113.723
 11
-33.8049
 21
106.217
  0
LINE
  8
0
 10
-33.8049
 20
106.217
 11
-28.4463
 21
98.4201
  0
LINE
  8
0
 10
-28.4463
 20
98.4201
 11
-23.5031
 21
90.3535
  0
LINE
  8
0
 10
-23.5031
 20
90.3535
 11
-18.9888
 21
82.0393
  0
LINE
  8
0
 10
-18.9888
 20
82.0393
 11
-14.9159
 21
73.5002
  0
LINE
  8
0
 10
-14.9159
 20
73.5002
 11
-11.2954
 21
64.7596
  0
LINE
  8
0
 10
-11.2954
 20
64.7596
 11
-8.13734
 21
55.8416
  0
LINE
  8
0
 10
-8.13734
 20
55.8416
 11
-5.45035
 21
46.7704
  0
LINE
  8
0
 10
-5.45035
 20
46.7704
 11
-3.24179
 21
37.5711
  0
LINE
  8
0
 10
-3.24179
 20
37.5711
 11
-1.51772
 21
28.2688
  0
LINE
  8
0
 10
-1.51772
 20
28.2688
 11
-0.282837
 21
18.889
  0
LINE
  8
0
 10
-0.282837
 20
18.889
 11
0.459442
 21
9.45748
  0
LINE
  8
0
 10
0.459442
 20
9.45748
 11
0.707092
 21
0
  0
LINE
  8
0
 10
0.707092
 20
0
 11
15.5429
 21
0
  0
LINE
  8
0
 10
15.5429
 20
0
 11
15.5429
 21
6.78295
  0
LINE
  8
0
 10
15.5429
 20
6.78295
 11
15.3634
 21
6.93359
  0
LINE
  8
0
 10
15.3634
 20
6.93359
 11
15.222
 21
7.05222
  0
LINE
  8
0
 10
15.222
 20
7.05222
 11
14.7034
 21
7.6282
  0
LINE
  8
0
 10
14.7034
 20
7.6282
 11
14.5799
 21
7.76534
  0
LINE
  8
0
 10
14.5799
 20
7.76534
 11
14.4767
 21
7.91834
  0
LINE
  8
0
 10
14.4767
 20
7.91834
 11
14.0433
 21
8.56089
  0
LINE
  8
0
 10
14.0433
 20
8.56089
 11
13.7035
 21
9.2575
  0
LINE
  8
0
 10
13.7035
 20
9.2575
 11
13.6226
 21
9.42337
  0
LINE
  8
0
 10
13.6226
 20
9.42337
 11
13.5656
 21
9.59889
  0
LINE
  8
0
 10
13.5656
 20
9.59889
 11
13.3261
 21
10.336
  0
LINE
  8
0
 10
13.3261
 20
10.336
 11
13.1915
 21
11.0993
  0
LINE
  8
0
 10
13.1915
 20
11.0993
 11
13.1595
 21
11.281
  0
LINE
  8
0
 10
13.1595
 20
11.281
 11
13.153
 21
11.4655
  0
LINE
  8
0
 10
13.153
 20
11.4655
 11
13.126
 21
12.24
  0
LINE
  8
0
 10
13.126
 20
12.24
 11
13.1453
 21
12.4236
  0
LINE
  8
0
 10
13.1453
 20
12.4236
 11
13.2263
 21
13.1944
  0
LINE
  8
0
 10
13.2263
 20
13.1944
 11
13.2709
 21
13.3735
  0
LINE
  8
0
 10
13.2709
 20
13.3735
 11
13.4584
 21
14.1255
  0
LINE
  8
0
 10
13.4584
 20
14.1255
 11
13.7488
 21
14.8441
  0
LINE
  8
0
 10
13.7488
 20
14.8441
 11
13.8179
 21
15.0152
  0
LINE
  8
0
 10
13.8179
 20
15.0152
 11
14.2054
 21
15.6864
  0
LINE
  8
0
 10
14.2054
 20
15.6864
 11
14.2977
 21
15.8463
  0
LINE
  8
0
 10
14.2977
 20
15.8463
 11
14.7749
 21
16.457
  0
LINE
  8
0
 10
14.7749
 20
16.457
 11
14.8885
 21
16.6024
  0
LINE
  8
0
 10
14.8885
 20
16.6024
 11
15.0212
 21
16.7306
  0
LINE
  8
0
 10
15.0212
 20
16.7306
 11
15.5788
 21
17.269
  0
LINE
  8
0
 10
15.5788
 20
17.269
 11
16.2058
 21
17.7246
  0
LINE
  8
0
 10
16.2058
 20
17.7246
 11
16.3551
 21
17.8331
  0
LINE
  8
0
 10
16.3551
 20
17.8331
 11
17.0394
 21
18.1969
  0
LINE
  8
0
 10
17.0394
 20
18.1969
 11
17.2024
 21
18.2836
  0
LINE
  8
0
 10
17.2024
 20
18.2836
 11
17.3758
 21
18.3467
  0
LINE
  8
0
 10
17.3758
 20
18.3467
 11
18.1041
 21
18.6118
  0
LINE
  8
0
 10
18.1041
 20
18.6118
 11
18.2846
 21
18.6501
  0
LINE
  8
0
 10
18.2846
 20
18.6501
 11
19.0427
 21
18.8113
  0
LINE
  8
0
 10
19.0427
 20
18.8113
 11
19.2268
 21
18.8242
  0
LINE
  8
0
 10
19.2268
 20
18.8242
 11
20
 21
18.8782
  0
LINE
  8
0
 10
20
 20
18.8782
 11
20.7732
 21
18.8242
  0
LINE
  8
0
 10
20.7732
 20
18.8242
 11
20.9573
 21
18.8113
  0
LINE
  8
0
 10
20.9573
 20
18.8113
 11
21.7154
 21
18.6501
  0
LINE
  8
0
 10
21.7154
 20
18.6501
 11
21.8959
 21
18.6118
  0
LINE
  8
0
 10
21.8959
 20
18.6118
 11
22.6242
 21
18.3467
  0
LINE
  8
0
 10
22.6242
 20
18.3467
 11
22.7976
 21
18.2836
  0
LINE
  8
0
 10
22.7976
 20
18.2836
 11
22.9606
 21
18.1969
  0
LINE
  8
0
 10
22.9606
 20
18.1969
 11
23.6449
 21
17.8331
  0
LINE
  8
0
 10
23.6449
 20
17.8331
 11
23.7942
 21
17.7246
  0
LINE
  8
0
 10
23.7942
 20
17.7246
 11
24.4212
 21
17.269
  0
LINE
  8
0
 10
24.4212
 20
17.269
 11
24.9788
 21
16.7306
  0
LINE
  8
0
 10
24.9788
 20
16.7306
 11
25.1115
 21
16.6024
  0
LINE
  8
0
 10
25.1115
 20
16.6024
 11
25.2251
 21
16.457
  0
LINE
  8
0
 10
25.2251
 20
16.457
 11
25.7023
 21
15.8463
  0
LINE
  8
0
 10
25.7023
 20
15.8463
 11
25.7946
 21
15.6864
  0
LINE
  8
0
 10
25.7946
 20
15.6864
 11
26.1821
 21
15.0152
  0
LINE
  8
0
 10
26.1821
 20
15.0152
 11
26.2512
 21
14.8441
  0
LINE
  8
0
 10
26.2512
 20
14.8441
 11
26.5416
 21
14.1255
  0
LINE
  8
0
 10
26.5416
 20
14.1255
 11
26.7291
 21
13.3735
  0
LINE
  8
0
 10
26.7291
 20
13.3735
 11
26.7737
 21
13.1944
  0
LINE
  8
0
 10
26.7737
 20
13.1944
 11
26.8547
 21
12.4236
  0
LINE
  8
0
 10
26.8547
 20
12.4236
 11
26.874
 21
12.24
  0
LINE
  8
0
 10
26.874
 20
12.24
 11
26.847
 21
11.4655
  0
LINE
  8
0
 10
26.847
 20
11.4655
 11
26.8405
 21
11.281
  0
LINE
  8
0
 10
26.8405
 20
11.281
 11
26.8085
 21
11.0993
  0
LINE
  8
0
 10
26.8085
 20
11.0993
 11
26.6739
 21
10.336
  0
LINE
  8
0
 10
26.6739
 20
10.336
 11
26.4344
 21
9.59889
  0
LINE
  8
0
 10
26.4344
 20
9.59889
 11
26.3774
 21
9.42337
  0
LINE
  8
0
 10
26.3774
 20
9.42337
 11
26.2965
 21
9.2575
  0
LINE
  8
0
 10
26.2965
 20
9.2575
 11
25.9567
 21
8.56089
  0
LINE
  8
0
 10
25.9567
 20
8.56089
 11
25.5233
 21
7.91834
  0
LINE
  8
0
 10
25.5233
 20
7.91834
 11
25.4201
 21
7.76534
  0
LINE
  8
0
 10
25.4201
 20
7.76534
 11
25.2966
 21
7.6282
  0
LINE
  8
0
 10
25.2966
 20
7.6282
 11
24.778
 21
7.05222
  0
LINE
  8
0
 10
24.778
 20
7.05222
 11
24.6366
 21
6.93359
  0
LINE
  8
0
 10
24.6366
 20
6.93359
 11
24.4571
 21
6.78295
  0
LINE
  8
0
 10
24.4571
 20
6.78295
 11
24.4571
 21
0
  0
LINE
  8
0
 10
24.4571
 20
0
 11
39.2929
 21
0
  0
LINE
  8
0
 10
39.2929
 20
0
 11
39.2744
 21
0.707107
  0
LINE
  8
0
 10
39.2744
 20
0.707107
 11
39.2929
 21
0.707107
  0
LINE
  8
0
 10
39.2929
 20
0.707107
 11
39.2929
 21
143.293
  0
LINE
  8
0
 10
39.2929
 20
143.293
 11
24.4571
 21
143.293
  0
LINE
  8
0
 10
24.4571
 20
143.293
 11
24.4571
 21
137.217
  0
LINE
  8
0
 10
24.4571
 20
137.217
 11
24.6366
 21
137.066
  0
LINE
  8
0
 10
24.6366
 20
137.066
 11
24.778
 21
136.948
  0
LINE
  8
0
 10
24.778
 20
136.948
 11
25.2966
 21
136.372
  0
LINE
  8
0
 10
25.2966
 20
136.372
 11
25.4201
 21
136.235
  0
LINE
  8
0
 10
25.4201
 20
136.235
 11
25.5233
 21
136.082
  0
LINE
  8
0
 10
25.5233
 20
136.082
 11
25.9567
 21
135.439
  0
LINE
  8
0
 10
25.9567
 20
135.439
 11
26.2965
 21
134.742
  0
LINE
  8
0
 10
26.2965
 20
134.742
 11
26.3774
 21
134.577
  0
LINE
  8
0
 10
26.3774
 20
134.577
 11
26.4344
 21
134.401
  0
LINE
  8
0
 10
26.4344
 20
134.401
 11
26.6739
 21
133.664
  0
LINE
  8
0
 10
26.6739
 20
133.664
 11
26.8085
 21
132.901
  0
LINE
  8
0
 10
26.8085
 20
132.901
 11
26.8405
 21
132.719
  0
LINE
  8
0
 10
26.8405
 20
132.719
 11
26.847
 21
132.535
  0
LINE
  8
0
 10
26.847
 20
132.535
 11
26.874
 21
131.76
  0
LINE
  8
0
 10
26.874
 20
131.76
 11
26.8547
 21
131.576
  0
LINE
  8
0
 10
26.8547
 20
131.576
 11
26.7737
 21
130.806
  0
LINE
  8
0
 10
26.7737
 20
130.806
 11
26.7291
 21
130.627
  0
LINE
  8
0
 10
26.7291
 20
130.627
 11
26.5416
 21
129.875
  0
LINE
  8
0
 10
26.5416
 20
129.875
 11
26.2512
 21
129.156
  0
LINE
  8
0
 10
26.2512
 20
129.156
 11
26.1821
 21
128.985
  0
LINE
  8
0
 10
26.1821
 20
128.985
 11
25.7946
 21
128.314
  0
LINE
  8
0
 10
25.7946
 20
128.314
 11
25.7023
 21
128.154
  0
LINE
  8
0
 10
25.7023
 20
128.154
 11
25.2251
 21
127.543
  0
LINE
  8
0
 10
25.2251
 20
127.543
 11
25.1115
 21
127.398
  0
LINE
  8
0
 10
25.1115
 20
127.398
 11
24.9788
 21
127.269
  0
LINE
  8
0
 10
24.9788
 20
127.269
 11
24.4212
 21
126.731
  0
LINE
  8
0
 10
24.4212
 20
126.731
 11
23.7942
 21
126.275
  0
LINE
  8
0
 10
23.7942
 20
126.275
 11
23.6449
 21
126.167
  0
LINE
  8
0
 10
23.6449
 20
126.167
 11
22.9606
 21
125.803
  0
LINE
  8
0
 10
22.9606
 20
125.803
 11
22.7976
 21
125.716
  0
LINE
  8
0
 10
22.7976
 20
125.716
 11
22.6242
 21
125.653
  0
LINE
  8
0
 10
22.6242
 20
125.653
 11
21.8959
 21
125.388
  0
LINE
  8
0
 10
21.8959
 20
125.388
 11
21.7154
 21
125.35
  0
LINE
  8
0
 10
21.7154
 20
125.35
 11
20.9573
 21
125.189
  0
LINE
  8
0
 10
20.9573
 20
125.189
 11
20.7732
 21
125.176
  0
LINE
  8
0
 10
20.7732
 20
125.176
 11
20
 21
125.122
  0
LINE
  8
0
 10
20
 20
125.122
 11
19.2268
 21
125.176
  0
LINE
  8
0
 10
19.2268
 20
125.176
 11
19.0427
 21
125.189
  0
LINE
  8
0
 10
19.0427
 20
125.189
 11
18.2846
 21
125.35
  0
LINE
  8
0
 10
18.2846
 20
125.35
 11
18.1041
 21
125.388
  0
LINE
  8
0
 10
18.1041
 20
125.388
 11
17.3758
 21
125.653
  0
LINE
  8
0
 10
17.3758
 20
125.653
 11
17.2024
 21
125.716
  0
LINE
  8
0
 10
17.2024
 20
125.716
 11
17.0394
 21
125.803
  0
LINE
  8
0
 10
17.0394
 20
125.803
 11
16.3551
 21
126.167
  0
LINE
  8
0
 10
16.3551
 20
126.167
 11
16.2058
 21
126.275
  0
LINE
  8
0
 10
16.2058
 20
126.275
 11
15.5788
 21
126.731
  0
LINE
  8
0
 10
15.5788
 20
126.731
 11
15.0212
 21
127.269
  0
LINE
  8
0
 10
15.0212
 20
127.269
 11
14.8885
 21
127.398
  0
LINE
  8
0
 10
14.8885
 20
127.398
 11
14.7749
 21
127.543
  0
LINE
  8
0
 10
14.7749
 20
127.543
 11
14.2977
 21
128.154
  0
LINE
  8
0
 10
14.2977
 20
128.154
 11
14.2054
 21
128.314
  0
LINE
  8
0
 10
14.2054
 20
128.314
 11
13.8179
 21
128.985
  0
LINE
  8
0
 10
13.8179
 20
128.985
 11
13.7488
 21
129.156
  0
LINE
  8
0
 10
13.7488
 20
129.156
 11
13.4584
 21
129.875
  0
LINE
  8
0
 10
13.4584
 20
129.875
 11
13.2709
 21
130.627
  0
LINE
  8
0
 10
13.2709
 20
130.627
 11
13.2263
 21
130.806
  0
LINE
  8
0
 10
13.2263
 20
130.806
 11
13.1453
 21
131.576
  0
LINE
  8
0
 10
13.1453
 20
131.576
 11
13.126
 21
131.76
  0
LINE
  8
0
 10
13.126
 20
131.76
 11
13.153
 21
132.535
  0
LINE
  8
0
 10
13.153
 20
132.535
 11
13.1595
 21
132.719
  0
LINE
  8
0
 10
13.1595
 20
132.719
 11
13.1915
 21
132.901
  0
LINE
  8
0
 10
13.1915
 20
132.901
 11
13.3261
 21
133.664
  0
LINE
  8
0
 10
13.3261
 20
133.664
 11
13.5656
 21
134.401
  0
LINE
  8
0
 10
13.5656
 20
134.401
 11
13.6226
 21
134.577
  0
LINE
  8
0
 10
13.6226
 20
134.577
 11
13.7035
 21
134.742
  0
LINE
  8
0
 10
13.7035
 20
134.742
 11
14.0433
 21
135.439
  0
LINE
  8
0
 10
14.0433
 20
135.439
 11
14.4767
 21
136.082
  0
LINE
  8
0
 10
14.4767
 20
136.082
 11
14.5799
 21
136.235
  0
LINE
  8
0
 10
14.5799
 20
136.235
 11
14.7034
 21
136.372
  0
LINE
  8
0
 10
14.7034
 20
136.372
 11
15.222
 21
136.948
  0
LINE
  8
0
 10
15.222
 20
136.948
 11
15.3634
 21
137.066
  0
LINE
  8
0
 10
15.3634
 20
137.066
 11
15.5429
 21
137.217
  0
LINE
  8
0
 10
15.5429
 20
137.217
 11
15.5429
 21
143.293
  0
LINE
  8
0
 10
15.5429
 20
143.293
 11
0.707108
 21
143.293
  0
LINE
  8
0
 10
0.707108
 20
143.293
 11
0.707108
 21
124.102
  0
LINE
  8
0
 10
0.707108
 20
124.102
 11
-2.58832
 21
128.897
  0
LINE
  8
0
 10
-2.58832
 20
128.897
 11
-9.57741
 21
138.005
  0
LINE
  8
0
 10
-9.57741
 20
138.005
 11
-17.0336
 21
146.736
  0
LINE
  8
0
 10
-17.0336
 20
146.736
 11
-24.9365
 21
155.063
  0
LINE
  8
0
 10
-24.9365
 20
155.063
 11
-26.8801
 21
156.908
  0
LINE
  8
0
 10
-26.8801
 20
156.908
 11
-37.204
 21
146.328
  0
LINE
  8
0
 10
-37.204
 20
146.328
 11
-32.3495
 21
141.591
  0
LINE
  8
0
 10
-32.3495
 20
141.591
 11
-32.1163
 21
141.614
  0
LINE
  8
0
 10
-32.1163
 20
141.614
 11
-31.9327
 21
141.633
  0
LINE
  8
0
 10
-31.9327
 20
141.633
 11
-31.1583
 21
141.602
  0
LINE
  8
0
 10
-31.1583
 20
141.602
 11
-30.9739
 21
141.594
  0
LINE
  8
0
 10
-30.9739
 20
141.594
 11
-30.7923
 21
141.561
  0
LINE
  8
0
 10
-30.7923
 20
141.561
 11
-30.0297
 21
141.423
  0
LINE
  8
0
 10
-30.0297
 20
141.423
 11
-29.2939
 21
141.179
  0
LINE
  8
0
 10
-29.2939
 20
141.179
 11
-29.1186
 21
141.121
  0
LINE
  8
0
 10
-29.1186
 20
141.121
 11
-28.9532
 21
141.04
  0
LINE
  8
0
 10
-28.9532
 20
141.04
 11
-28.2584
 21
140.696
  0
LINE
  8
0
 10
-28.2584
 20
140.696
 11
-27.6181
 21
140.259
  0
LINE
  8
0
 10
-27.6181
 20
140.259
 11
-27.4657
 21
140.155
  0
LINE
  8
0
 10
-27.4657
 20
140.155
 11
-27.3292
 21
140.031
  0
LINE
  8
0
 10
-27.3292
 20
140.031
 11
-26.7559
 21
139.51
  0
LINE
  8
0
 10
-26.7559
 20
139.51
 11
-26.638
 21
139.368
  0
LINE
  8
0
 10
-26.638
 20
139.368
 11
-26.1429
 21
138.771
  0
LINE
  8
0
 10
-26.1429
 20
138.771
 11
-26.046
 21
138.614
  0
LINE
  8
0
 10
-26.046
 20
138.614
 11
-25.6387
 21
137.955
  0
LINE
  8
0
 10
-25.6387
 20
137.955
 11
-25.3272
 21
137.245
  0
LINE
  8
0
 10
-25.3272
 20
137.245
 11
-25.253
 21
137.076
  0
LINE
  8
0
 10
-25.253
 20
137.076
 11
-25.0433
 21
136.33
  0
LINE
  8
0
 10
-25.0433
 20
136.33
 11
-24.9933
 21
136.152
  0
LINE
  8
0
 10
-24.9933
 20
136.152
 11
-24.8895
 21
135.384
  0
LINE
  8
0
 10
-24.8895
 20
135.384
 11
-24.8647
 21
135.201
  0
LINE
  8
0
 10
-24.8647
 20
135.201
 11
-24.8657
 21
135.017
  0
LINE
  8
0
 10
-24.8657
 20
135.017
 11
-24.8698
 21
134.242
  0
LINE
  8
0
 10
-24.8698
 20
134.242
 11
-24.9817
 21
133.475
  0
LINE
  8
0
 10
-24.9817
 20
133.475
 11
-25.0083
 21
133.292
  0
LINE
  8
0
 10
-25.0083
 20
133.292
 11
-25.2258
 21
132.548
  0
LINE
  8
0
 10
-25.2258
 20
132.548
 11
-25.2776
 21
132.371
  0
LINE
  8
0
 10
-25.2776
 20
132.371
 11
-25.3536
 21
132.203
  0
LINE
  8
0
 10
-25.3536
 20
132.203
 11
-25.6725
 21
131.497
  0
LINE
  8
0
 10
-25.6725
 20
131.497
 11
-25.7711
 21
131.341
  0
LINE
  8
0
 10
-25.7711
 20
131.341
 11
-26.1853
 21
130.686
  0
LINE
  8
0
 10
-26.1853
 20
130.686
 11
-26.3046
 21
130.545
  0
LINE
  8
0
 10
-26.3046
 20
130.545
 11
-26.8059
 21
129.954
  0
LINE
  8
0
 10
-26.8059
 20
129.954
 11
-27.3846
 21
129.438
  0
LINE
  8
0
 10
-27.3846
 20
129.438
 11
-27.5224
 21
129.315
  0
LINE
  8
0
 10
-27.5224
 20
129.315
 11
-28.1672
 21
128.885
  0
LINE
  8
0
 10
-28.1672
 20
128.885
 11
-28.3208
 21
128.783
  0
LINE
  8
0
 10
-28.3208
 20
128.783
 11
-29.0191
 21
128.447
  0
LINE
  8
0
 10
-29.0191
 20
128.447
 11
-29.1854
 21
128.367
  0
LINE
  8
0
 10
-29.1854
 20
128.367
 11
-29.3612
 21
128.311
  0
LINE
  8
0
 10
-29.3612
 20
128.311
 11
-30.0996
 21
128.075
  0
LINE
  8
0
 10
-30.0996
 20
128.075
 11
-30.2815
 21
128.044
  0
LINE
  8
0
 10
-30.2815
 20
128.044
 11
-31.0455
 21
127.913
  0
LINE
  8
0
 10
-31.0455
 20
127.913
 11
-31.8202
 21
127.89
  0
LINE
  8
0
 10
-31.8202
 20
127.89
 11
-32.0047
 21
127.885
  0
LINE
  8
0
 10
-32.0047
 20
127.885
 11
-32.1881
 21
127.905
  0
LINE
  8
0
 10
-32.1881
 20
127.905
 11
-32.9585
 21
127.99
  0
LINE
  8
0
 10
-32.9585
 20
127.99
 11
-33.1373
 21
128.036
  0
LINE
  8
0
 10
-33.1373
 20
128.036
 11
-33.8883
 21
128.227
  0
LINE
  8
0
 10
-33.8883
 20
128.227
 11
-34.0591
 21
128.297
  0
LINE
  8
0
 10
-34.0591
 20
128.297
 11
-34.7762
 21
128.591
  0
LINE
  8
0
 10
-34.7762
 20
128.591
 11
-35.4453
 21
128.982
  0
LINE
  8
0
 10
-35.4453
 20
128.982
 11
-35.6047
 21
129.075
  0
LINE
  8
0
 10
-35.6047
 20
129.075
 11
-36.2129
 21
129.556
  0
LINE
  8
0
 10
-36.2129
 20
129.556
 11
-36.3578
 21
129.67
  0
LINE
  8
0
 10
-36.3578
 20
129.67
 11
-36.8932
 21
130.231
  0
LINE
  8
0
 10
-36.8932
 20
130.231
 11
-37.0207
 21
130.364
  0
LINE
  8
0
 10
-37.0207
 20
130.364
 11
-37.1284
 21
130.514
  0
LINE
  8
0
 10
-37.1284
 20
130.514
 11
-37.5807
 21
131.143
  0
LINE
  8
0
 10
-37.5807
 20
131.143
 11
-37.941
 21
131.829
  0
LINE
  8
0
 10
-37.941
 20
131.829
 11
-38.0268
 21
131.993
  0
LINE
  8
0
 10
-38.0268
 20
131.993
 11
-38.089
 21
132.167
  0
LINE
  8
0
 10
-38.089
 20
132.167
 11
-38.3502
 21
132.896
  0
LINE
  8
0
 10
-38.3502
 20
132.896
 11
-38.5074
 21
133.655
  0
LINE
  8
0
 10
-38.5074
 20
133.655
 11
-38.5448
 21
133.836
  0
LINE
  8
0
 10
-38.5448
 20
133.836
 11
-38.5567
 21
134.02
  0
LINE
  8
0
 10
-38.5567
 20
134.02
 11
-38.6068
 21
134.794
  0
LINE
  8
0
 10
-38.6068
 20
134.794
 11
-38.5929
 21
134.978
  0
LINE
  8
0
 10
-38.5929
 20
134.978
 11
-38.5753
 21
135.211
  0
LINE
  8
0
 10
-38.5753
 20
135.211
 11
-43.4299
 21
139.949
  0
LINE
  8
0
 10
-43.4299
 20
139.949
 11
-53.8224
 21
129.299
  0
LINE
  8
0
 10
-2.60081
 20
62.1594
 11
-2.5
 21
62.2211
  0
LINE
  8
0
 10
-2.5
 20
62.2211
 11
-0.429572
 21
63.3453
  0
LINE
  8
0
 10
-0.429572
 20
63.3453
 11
1.69685
 21
64.3595
  0
LINE
  8
0
 10
1.69685
 20
64.3595
 11
3.87344
 21
65.2611
  0
LINE
  8
0
 10
3.87344
 20
65.2611
 11
6.09423
 21
66.0475
  0
LINE
  8
0
 10
6.09423
 20
66.0475
 11
8.35314
 21
66.7167
  0
LINE
  8
0
 10
8.35314
 20
66.7167
 11
10.644
 21
67.2666
  0
LINE
  8
0
 10
10.644
 20
67.2666
 11
12.9604
 21
67.696
  0
LINE
  8
0
 10
12.9604
 20
67.696
 11
15.2962
 21
68.0035
  0
LINE
  8
0
 10
15.2962
 20
68.0035
 11
17.6449
 21
68.1883
  0
LINE
  8
0
 10
17.6449
 20
68.1883
 11
20
 21
68.25
  0
LINE
  8
0
 10
20
 20
68.25
 11
22.3551
 21
68.1883
  0
LINE
  8
0
 10
22.3551
 20
68.1883
 11
24.7038
 21
68.0035
  0
LINE
  8
0
 10
24.7038
 20
68.0035
 11
27.0396
 21
67.696
  0
LINE
  8
0
 10
27.0396
 20
67.696
 11
29.356
 21
67.2666
  0
LINE
  8
0
 10
29.356
 20
67.2666
 11
31.6469
 21
66.7167
  0
LINE
  8
0
 10
31.6469
 20
66.7167
 11
32.3
 21
66.5232
  0
LINE
  8
0
 10
32.3
 20
66.5232
 11
32.3
 21
23.25
  0
LINE
  8
0
 10
32.3
 20
23.25
 11
6.53416
 21
23.25
  0
LINE
  8
0
 10
6.53416
 20
23.25
 11
5.72244
 21
29.4155
  0
LINE
  8
0
 10
5.72244
 20
29.4155
 11
3.92844
 21
39.0952
  0
LINE
  8
0
 10
3.92844
 20
39.0952
 11
1.63028
 21
48.6677
  0
LINE
  8
0
 10
1.63028
 20
48.6677
 11
-1.16571
 21
58.1068
  0
LINE
  8
0
 10
-1.16571
 20
58.1068
 11
-2.60081
 21
62.1594
  0
ENDSEC
  0
SECTION
  2
OBJECTS
  0
DICTIONARY
  0
ENDSEC
  0
EOF
