  0
SECTION
  2
BLOCKS
  0
ENDSEC
  0
SECTION
  2
ENTITIES
  0
LINE
  8
0
 10
0.707108
 20
0.707107
 11
0.751009
 21
0.707107
  0
LINE
  8
0
 10
0.751009
 20
0.707107
 11
0.760882
 21
-2.43173e-06
  0
LINE
  8
0
 10
0.760882
 20
-2.43173e-06
 11
15.5429
 21
-2.26778e-06
  0
LINE
  8
0
 10
15.5429
 20
-2.26778e-06
 11
15.5429
 21
6.78295
  0
LINE
  8
0
 10
15.5429
 20
6.78295
 11
15.3634
 21
6.93359
  0
LINE
  8
0
 10
15.3634
 20
6.93359
 11
15.222
 21
7.05222
  0
LINE
  8
0
 10
15.222
 20
7.05222
 11
14.7034
 21
7.6282
  0
LINE
  8
0
 10
14.7034
 20
7.6282
 11
14.5799
 21
7.76534
  0
LINE
  8
0
 10
14.5799
 20
7.76534
 11
14.4767
 21
7.91834
  0
LINE
  8
0
 10
14.4767
 20
7.91834
 11
14.0433
 21
8.56089
  0
LINE
  8
0
 10
14.0433
 20
8.56089
 11
13.7035
 21
9.2575
  0
LINE
  8
0
 10
13.7035
 20
9.2575
 11
13.6226
 21
9.42337
  0
LINE
  8
0
 10
13.6226
 20
9.42337
 11
13.5656
 21
9.59889
  0
LINE
  8
0
 10
13.5656
 20
9.59889
 11
13.3261
 21
10.336
  0
LINE
  8
0
 10
13.3261
 20
10.336
 11
13.1915
 21
11.0993
  0
LINE
  8
0
 10
13.1915
 20
11.0993
 11
13.1595
 21
11.281
  0
LINE
  8
0
 10
13.1595
 20
11.281
 11
13.153
 21
11.4655
  0
LINE
  8
0
 10
13.153
 20
11.4655
 11
13.126
 21
12.24
  0
LINE
  8
0
 10
13.126
 20
12.24
 11
13.1453
 21
12.4236
  0
LINE
  8
0
 10
13.1453
 20
12.4236
 11
13.2263
 21
13.1944
  0
LINE
  8
0
 10
13.2263
 20
13.1944
 11
13.2709
 21
13.3735
  0
LINE
  8
0
 10
13.2709
 20
13.3735
 11
13.4584
 21
14.1255
  0
LINE
  8
0
 10
13.4584
 20
14.1255
 11
13.7488
 21
14.8441
  0
LINE
  8
0
 10
13.7488
 20
14.8441
 11
13.8179
 21
15.0152
  0
LINE
  8
0
 10
13.8179
 20
15.0152
 11
14.2054
 21
15.6864
  0
LINE
  8
0
 10
14.2054
 20
15.6864
 11
14.2977
 21
15.8463
  0
LINE
  8
0
 10
14.2977
 20
15.8463
 11
14.7749
 21
16.457
  0
LINE
  8
0
 10
14.7749
 20
16.457
 11
14.8885
 21
16.6024
  0
LINE
  8
0
 10
14.8885
 20
16.6024
 11
15.0212
 21
16.7306
  0
LINE
  8
0
 10
15.0212
 20
16.7306
 11
15.5788
 21
17.269
  0
LINE
  8
0
 10
15.5788
 20
17.269
 11
16.2058
 21
17.7246
  0
LINE
  8
0
 10
16.2058
 20
17.7246
 11
16.3551
 21
17.8331
  0
LINE
  8
0
 10
16.3551
 20
17.8331
 11
17.0394
 21
18.1969
  0
LINE
  8
0
 10
17.0394
 20
18.1969
 11
17.2024
 21
18.2836
  0
LINE
  8
0
 10
17.2024
 20
18.2836
 11
17.3758
 21
18.3467
  0
LINE
  8
0
 10
17.3758
 20
18.3467
 11
18.1041
 21
18.6118
  0
LINE
  8
0
 10
18.1041
 20
18.6118
 11
18.2846
 21
18.6501
  0
LINE
  8
0
 10
18.2846
 20
18.6501
 11
19.0427
 21
18.8113
  0
LINE
  8
0
 10
19.0427
 20
18.8113
 11
19.2268
 21
18.8242
  0
LINE
  8
0
 10
19.2268
 20
18.8242
 11
20
 21
18.8782
  0
LINE
  8
0
 10
20
 20
18.8782
 11
20.7732
 21
18.8242
  0
LINE
  8
0
 10
20.7732
 20
18.8242
 11
20.9573
 21
18.8113
  0
LINE
  8
0
 10
20.9573
 20
18.8113
 11
21.7154
 21
18.6501
  0
LINE
  8
0
 10
21.7154
 20
18.6501
 11
21.8959
 21
18.6118
  0
LINE
  8
0
 10
21.8959
 20
18.6118
 11
22.6242
 21
18.3467
  0
LINE
  8
0
 10
22.6242
 20
18.3467
 11
22.7976
 21
18.2836
  0
LINE
  8
0
 10
22.7976
 20
18.2836
 11
22.9606
 21
18.1969
  0
LINE
  8
0
 10
22.9606
 20
18.1969
 11
23.6449
 21
17.8331
  0
LINE
  8
0
 10
23.6449
 20
17.8331
 11
23.7942
 21
17.7246
  0
LINE
  8
0
 10
23.7942
 20
17.7246
 11
24.4212
 21
17.269
  0
LINE
  8
0
 10
24.4212
 20
17.269
 11
24.9788
 21
16.7306
  0
LINE
  8
0
 10
24.9788
 20
16.7306
 11
25.1115
 21
16.6024
  0
LINE
  8
0
 10
25.1115
 20
16.6024
 11
25.2251
 21
16.457
  0
LINE
  8
0
 10
25.2251
 20
16.457
 11
25.7023
 21
15.8463
  0
LINE
  8
0
 10
25.7023
 20
15.8463
 11
25.7946
 21
15.6864
  0
LINE
  8
0
 10
25.7946
 20
15.6864
 11
26.1821
 21
15.0152
  0
LINE
  8
0
 10
26.1821
 20
15.0152
 11
26.2512
 21
14.8441
  0
LINE
  8
0
 10
26.2512
 20
14.8441
 11
26.5416
 21
14.1255
  0
LINE
  8
0
 10
26.5416
 20
14.1255
 11
26.7291
 21
13.3735
  0
LINE
  8
0
 10
26.7291
 20
13.3735
 11
26.7737
 21
13.1944
  0
LINE
  8
0
 10
26.7737
 20
13.1944
 11
26.8547
 21
12.4236
  0
LINE
  8
0
 10
26.8547
 20
12.4236
 11
26.874
 21
12.24
  0
LINE
  8
0
 10
26.874
 20
12.24
 11
26.847
 21
11.4655
  0
LINE
  8
0
 10
26.847
 20
11.4655
 11
26.8405
 21
11.281
  0
LINE
  8
0
 10
26.8405
 20
11.281
 11
26.8085
 21
11.0993
  0
LINE
  8
0
 10
26.8085
 20
11.0993
 11
26.6739
 21
10.336
  0
LINE
  8
0
 10
26.6739
 20
10.336
 11
26.4344
 21
9.59889
  0
LINE
  8
0
 10
26.4344
 20
9.59889
 11
26.3774
 21
9.42337
  0
LINE
  8
0
 10
26.3774
 20
9.42337
 11
26.2965
 21
9.2575
  0
LINE
  8
0
 10
26.2965
 20
9.2575
 11
25.9567
 21
8.56089
  0
LINE
  8
0
 10
25.9567
 20
8.56089
 11
25.5233
 21
7.91834
  0
LINE
  8
0
 10
25.5233
 20
7.91834
 11
25.4201
 21
7.76534
  0
LINE
  8
0
 10
25.4201
 20
7.76534
 11
25.2966
 21
7.6282
  0
LINE
  8
0
 10
25.2966
 20
7.6282
 11
24.778
 21
7.05222
  0
LINE
  8
0
 10
24.778
 20
7.05222
 11
24.6366
 21
6.93359
  0
LINE
  8
0
 10
24.6366
 20
6.93359
 11
24.4571
 21
6.78295
  0
LINE
  8
0
 10
24.4571
 20
6.78295
 11
24.4571
 21
-2.1689e-06
  0
LINE
  8
0
 10
24.4571
 20
-2.1689e-06
 11
39.3372
 21
-2.00386e-06
  0
LINE
  8
0
 10
39.3372
 20
-2.00386e-06
 11
39.3064
 21
2.2077
  0
LINE
  8
0
 10
39.3064
 20
2.2077
 11
39.6696
 21
11.6614
  0
LINE
  8
0
 10
39.6696
 20
11.6614
 11
40.527
 21
21.0832
  0
LINE
  8
0
 10
40.527
 20
21.0832
 11
41.8764
 21
30.4472
  0
LINE
  8
0
 10
41.8764
 20
30.4472
 11
43.714
 21
39.7278
  0
LINE
  8
0
 10
43.714
 20
39.7278
 11
46.0348
 21
48.8994
  0
LINE
  8
0
 10
46.0348
 20
48.8994
 11
48.8324
 21
57.937
  0
LINE
  8
0
 10
48.8324
 20
57.937
 11
52.0992
 21
66.8159
  0
LINE
  8
0
 10
52.0992
 20
66.8159
 11
55.8261
 21
75.5115
  0
LINE
  8
0
 10
55.8261
 20
75.5115
 11
60.0031
 21
84.0003
  0
LINE
  8
0
 10
60.0031
 20
84.0003
 11
64.6186
 21
92.2587
  0
LINE
  8
0
 10
64.6186
 20
92.2587
 11
69.66
 21
100.264
  0
LINE
  8
0
 10
69.66
 20
100.264
 11
75.1135
 21
107.995
  0
LINE
  8
0
 10
75.1135
 20
107.995
 11
80.964
 21
115.43
  0
LINE
  8
0
 10
80.964
 20
115.43
 11
87.1957
 21
122.548
  0
LINE
  8
0
 10
87.1957
 20
122.548
 11
93.7914
 21
129.331
  0
LINE
  8
0
 10
93.7914
 20
129.331
 11
83.4299
 21
139.949
  0
LINE
  8
0
 10
83.4299
 20
139.949
 11
78.5753
 21
135.211
  0
LINE
  8
0
 10
78.5753
 20
135.211
 11
78.5929
 21
134.978
  0
LINE
  8
0
 10
78.5929
 20
134.978
 11
78.6068
 21
134.794
  0
LINE
  8
0
 10
78.6068
 20
134.794
 11
78.5567
 21
134.02
  0
LINE
  8
0
 10
78.5567
 20
134.02
 11
78.5448
 21
133.836
  0
LINE
  8
0
 10
78.5448
 20
133.836
 11
78.5074
 21
133.655
  0
LINE
  8
0
 10
78.5074
 20
133.655
 11
78.3502
 21
132.896
  0
LINE
  8
0
 10
78.3502
 20
132.896
 11
78.089
 21
132.167
  0
LINE
  8
0
 10
78.089
 20
132.167
 11
78.0268
 21
131.993
  0
LINE
  8
0
 10
78.0268
 20
131.993
 11
77.941
 21
131.829
  0
LINE
  8
0
 10
77.941
 20
131.829
 11
77.5807
 21
131.143
  0
LINE
  8
0
 10
77.5807
 20
131.143
 11
77.1284
 21
130.514
  0
LINE
  8
0
 10
77.1284
 20
130.514
 11
77.0207
 21
130.364
  0
LINE
  8
0
 10
77.0207
 20
130.364
 11
76.8932
 21
130.231
  0
LINE
  8
0
 10
76.8932
 20
130.231
 11
76.3578
 21
129.67
  0
LINE
  8
0
 10
76.3578
 20
129.67
 11
76.2129
 21
129.556
  0
LINE
  8
0
 10
76.2129
 20
129.556
 11
75.6047
 21
129.075
  0
LINE
  8
0
 10
75.6047
 20
129.075
 11
75.4453
 21
128.982
  0
LINE
  8
0
 10
75.4453
 20
128.982
 11
74.7762
 21
128.591
  0
LINE
  8
0
 10
74.7762
 20
128.591
 11
74.0591
 21
128.297
  0
LINE
  8
0
 10
74.0591
 20
128.297
 11
73.8883
 21
128.227
  0
LINE
  8
0
 10
73.8883
 20
128.227
 11
73.1373
 21
128.036
  0
LINE
  8
0
 10
73.1373
 20
128.036
 11
72.9585
 21
127.99
  0
LINE
  8
0
 10
72.9585
 20
127.99
 11
72.1881
 21
127.905
  0
LINE
  8
0
 10
72.1881
 20
127.905
 11
72.0047
 21
127.885
  0
LINE
  8
0
 10
72.0047
 20
127.885
 11
71.8202
 21
127.89
  0
LINE
  8
0
 10
71.8202
 20
127.89
 11
71.0455
 21
127.913
  0
LINE
  8
0
 10
71.0455
 20
127.913
 11
70.2815
 21
128.044
  0
LINE
  8
0
 10
70.2815
 20
128.044
 11
70.0996
 21
128.075
  0
LINE
  8
0
 10
70.0996
 20
128.075
 11
69.3612
 21
128.311
  0
LINE
  8
0
 10
69.3612
 20
128.311
 11
69.1854
 21
128.367
  0
LINE
  8
0
 10
69.1854
 20
128.367
 11
69.0191
 21
128.447
  0
LINE
  8
0
 10
69.0191
 20
128.447
 11
68.3208
 21
128.783
  0
LINE
  8
0
 10
68.3208
 20
128.783
 11
68.1672
 21
128.885
  0
LINE
  8
0
 10
68.1672
 20
128.885
 11
67.5224
 21
129.315
  0
LINE
  8
0
 10
67.5224
 20
129.315
 11
67.3846
 21
129.438
  0
LINE
  8
0
 10
67.3846
 20
129.438
 11
66.8059
 21
129.954
  0
LINE
  8
0
 10
66.8059
 20
129.954
 11
66.3046
 21
130.545
  0
LINE
  8
0
 10
66.3046
 20
130.545
 11
66.1853
 21
130.686
  0
LINE
  8
0
 10
66.1853
 20
130.686
 11
65.7711
 21
131.341
  0
LINE
  8
0
 10
65.7711
 20
131.341
 11
65.6725
 21
131.497
  0
LINE
  8
0
 10
65.6725
 20
131.497
 11
65.3536
 21
132.203
  0
LINE
  8
0
 10
65.3536
 20
132.203
 11
65.2776
 21
132.371
  0
LINE
  8
0
 10
65.2776
 20
132.371
 11
65.2258
 21
132.548
  0
LINE
  8
0
 10
65.2258
 20
132.548
 11
65.0083
 21
133.292
  0
LINE
  8
0
 10
65.0083
 20
133.292
 11
64.9817
 21
133.475
  0
LINE
  8
0
 10
64.9817
 20
133.475
 11
64.8698
 21
134.242
  0
LINE
  8
0
 10
64.8698
 20
134.242
 11
64.8657
 21
135.017
  0
LINE
  8
0
 10
64.8657
 20
135.017
 11
64.8647
 21
135.201
  0
LINE
  8
0
 10
64.8647
 20
135.201
 11
64.8895
 21
135.384
  0
LINE
  8
0
 10
64.8895
 20
135.384
 11
64.9933
 21
136.152
  0
LINE
  8
0
 10
64.9933
 20
136.152
 11
65.0433
 21
136.33
  0
LINE
  8
0
 10
65.0433
 20
136.33
 11
65.253
 21
137.076
  0
LINE
  8
0
 10
65.253
 20
137.076
 11
65.3272
 21
137.245
  0
LINE
  8
0
 10
65.3272
 20
137.245
 11
65.6387
 21
137.955
  0
LINE
  8
0
 10
65.6387
 20
137.955
 11
66.046
 21
138.614
  0
LINE
  8
0
 10
66.046
 20
138.614
 11
66.1429
 21
138.771
  0
LINE
  8
0
 10
66.1429
 20
138.771
 11
66.638
 21
139.368
  0
LINE
  8
0
 10
66.638
 20
139.368
 11
66.7559
 21
139.51
  0
LINE
  8
0
 10
66.7559
 20
139.51
 11
67.3292
 21
140.031
  0
LINE
  8
0
 10
67.3292
 20
140.031
 11
67.4657
 21
140.155
  0
LINE
  8
0
 10
67.4657
 20
140.155
 11
67.6181
 21
140.259
  0
LINE
  8
0
 10
67.6181
 20
140.259
 11
68.2584
 21
140.696
  0
LINE
  8
0
 10
68.2584
 20
140.696
 11
68.9532
 21
141.04
  0
LINE
  8
0
 10
68.9532
 20
141.04
 11
69.1186
 21
141.121
  0
LINE
  8
0
 10
69.1186
 20
141.121
 11
69.2939
 21
141.179
  0
LINE
  8
0
 10
69.2939
 20
141.179
 11
70.0297
 21
141.423
  0
LINE
  8
0
 10
70.0297
 20
141.423
 11
70.7923
 21
141.561
  0
LINE
  8
0
 10
70.7923
 20
141.561
 11
70.9739
 21
141.594
  0
LINE
  8
0
 10
70.9739
 20
141.594
 11
71.1583
 21
141.602
  0
LINE
  8
0
 10
71.1583
 20
141.602
 11
71.9327
 21
141.633
  0
LINE
  8
0
 10
71.9327
 20
141.633
 11
72.1163
 21
141.614
  0
LINE
  8
0
 10
72.1163
 20
141.614
 11
72.3495
 21
141.591
  0
LINE
  8
0
 10
72.3495
 20
141.591
 11
77.204
 21
146.328
  0
LINE
  8
0
 10
77.204
 20
146.328
 11
66.8425
 21
156.946
  0
LINE
  8
0
 10
66.8425
 20
156.946
 11
58.8385
 21
148.716
  0
LINE
  8
0
 10
58.8385
 20
148.716
 11
51.2761
 21
140.077
  0
LINE
  8
0
 10
51.2761
 20
140.077
 11
44.1763
 21
131.055
  0
LINE
  8
0
 10
44.1763
 20
131.055
 11
39.2929
 21
124.132
  0
LINE
  8
0
 10
39.2929
 20
124.132
 11
39.2929
 21
143.293
  0
LINE
  8
0
 10
39.2929
 20
143.293
 11
24.4571
 21
143.293
  0
LINE
  8
0
 10
24.4571
 20
143.293
 11
24.4571
 21
137.217
  0
LINE
  8
0
 10
24.4571
 20
137.217
 11
24.6366
 21
137.066
  0
LINE
  8
0
 10
24.6366
 20
137.066
 11
24.778
 21
136.948
  0
LINE
  8
0
 10
24.778
 20
136.948
 11
25.2966
 21
136.372
  0
LINE
  8
0
 10
25.2966
 20
136.372
 11
25.4201
 21
136.235
  0
LINE
  8
0
 10
25.4201
 20
136.235
 11
25.5233
 21
136.082
  0
LINE
  8
0
 10
25.5233
 20
136.082
 11
25.9567
 21
135.439
  0
LINE
  8
0
 10
25.9567
 20
135.439
 11
26.2965
 21
134.742
  0
LINE
  8
0
 10
26.2965
 20
134.742
 11
26.3774
 21
134.577
  0
LINE
  8
0
 10
26.3774
 20
134.577
 11
26.4344
 21
134.401
  0
LINE
  8
0
 10
26.4344
 20
134.401
 11
26.6739
 21
133.664
  0
LINE
  8
0
 10
26.6739
 20
133.664
 11
26.8085
 21
132.901
  0
LINE
  8
0
 10
26.8085
 20
132.901
 11
26.8405
 21
132.719
  0
LINE
  8
0
 10
26.8405
 20
132.719
 11
26.847
 21
132.535
  0
LINE
  8
0
 10
26.847
 20
132.535
 11
26.874
 21
131.76
  0
LINE
  8
0
 10
26.874
 20
131.76
 11
26.8547
 21
131.576
  0
LINE
  8
0
 10
26.8547
 20
131.576
 11
26.7737
 21
130.806
  0
LINE
  8
0
 10
26.7737
 20
130.806
 11
26.7291
 21
130.627
  0
LINE
  8
0
 10
26.7291
 20
130.627
 11
26.5416
 21
129.875
  0
LINE
  8
0
 10
26.5416
 20
129.875
 11
26.2512
 21
129.156
  0
LINE
  8
0
 10
26.2512
 20
129.156
 11
26.1821
 21
128.985
  0
LINE
  8
0
 10
26.1821
 20
128.985
 11
25.7946
 21
128.314
  0
LINE
  8
0
 10
25.7946
 20
128.314
 11
25.7023
 21
128.154
  0
LINE
  8
0
 10
25.7023
 20
128.154
 11
25.2251
 21
127.543
  0
LINE
  8
0
 10
25.2251
 20
127.543
 11
25.1115
 21
127.398
  0
LINE
  8
0
 10
25.1115
 20
127.398
 11
24.9788
 21
127.269
  0
LINE
  8
0
 10
24.9788
 20
127.269
 11
24.4212
 21
126.731
  0
LINE
  8
0
 10
24.4212
 20
126.731
 11
23.7942
 21
126.275
  0
LINE
  8
0
 10
23.7942
 20
126.275
 11
23.6449
 21
126.167
  0
LINE
  8
0
 10
23.6449
 20
126.167
 11
22.9606
 21
125.803
  0
LINE
  8
0
 10
22.9606
 20
125.803
 11
22.7976
 21
125.716
  0
LINE
  8
0
 10
22.7976
 20
125.716
 11
22.6242
 21
125.653
  0
LINE
  8
0
 10
22.6242
 20
125.653
 11
21.8959
 21
125.388
  0
LINE
  8
0
 10
21.8959
 20
125.388
 11
21.7154
 21
125.35
  0
LINE
  8
0
 10
21.7154
 20
125.35
 11
20.9573
 21
125.189
  0
LINE
  8
0
 10
20.9573
 20
125.189
 11
20.7732
 21
125.176
  0
LINE
  8
0
 10
20.7732
 20
125.176
 11
20
 21
125.122
  0
LINE
  8
0
 10
20
 20
125.122
 11
19.2268
 21
125.176
  0
LINE
  8
0
 10
19.2268
 20
125.176
 11
19.0427
 21
125.189
  0
LINE
  8
0
 10
19.0427
 20
125.189
 11
18.2846
 21
125.35
  0
LINE
  8
0
 10
18.2846
 20
125.35
 11
18.1041
 21
125.388
  0
LINE
  8
0
 10
18.1041
 20
125.388
 11
17.3758
 21
125.653
  0
LINE
  8
0
 10
17.3758
 20
125.653
 11
17.2024
 21
125.716
  0
LINE
  8
0
 10
17.2024
 20
125.716
 11
17.0394
 21
125.803
  0
LINE
  8
0
 10
17.0394
 20
125.803
 11
16.3551
 21
126.167
  0
LINE
  8
0
 10
16.3551
 20
126.167
 11
16.2058
 21
126.275
  0
LINE
  8
0
 10
16.2058
 20
126.275
 11
15.5788
 21
126.731
  0
LINE
  8
0
 10
15.5788
 20
126.731
 11
15.0212
 21
127.269
  0
LINE
  8
0
 10
15.0212
 20
127.269
 11
14.8885
 21
127.398
  0
LINE
  8
0
 10
14.8885
 20
127.398
 11
14.7749
 21
127.543
  0
LINE
  8
0
 10
14.7749
 20
127.543
 11
14.2977
 21
128.154
  0
LINE
  8
0
 10
14.2977
 20
128.154
 11
14.2054
 21
128.314
  0
LINE
  8
0
 10
14.2054
 20
128.314
 11
13.8179
 21
128.985
  0
LINE
  8
0
 10
13.8179
 20
128.985
 11
13.7488
 21
129.156
  0
LINE
  8
0
 10
13.7488
 20
129.156
 11
13.4584
 21
129.875
  0
LINE
  8
0
 10
13.4584
 20
129.875
 11
13.2709
 21
130.627
  0
LINE
  8
0
 10
13.2709
 20
130.627
 11
13.2263
 21
130.806
  0
LINE
  8
0
 10
13.2263
 20
130.806
 11
13.1453
 21
131.576
  0
LINE
  8
0
 10
13.1453
 20
131.576
 11
13.126
 21
131.76
  0
LINE
  8
0
 10
13.126
 20
131.76
 11
13.153
 21
132.535
  0
LINE
  8
0
 10
13.153
 20
132.535
 11
13.1595
 21
132.719
  0
LINE
  8
0
 10
13.1595
 20
132.719
 11
13.1915
 21
132.901
  0
LINE
  8
0
 10
13.1915
 20
132.901
 11
13.3261
 21
133.664
  0
LINE
  8
0
 10
13.3261
 20
133.664
 11
13.5656
 21
134.401
  0
LINE
  8
0
 10
13.5656
 20
134.401
 11
13.6226
 21
134.577
  0
LINE
  8
0
 10
13.6226
 20
134.577
 11
13.7035
 21
134.742
  0
LINE
  8
0
 10
13.7035
 20
134.742
 11
14.0433
 21
135.439
  0
LINE
  8
0
 10
14.0433
 20
135.439
 11
14.4767
 21
136.082
  0
LINE
  8
0
 10
14.4767
 20
136.082
 11
14.5799
 21
136.235
  0
LINE
  8
0
 10
14.5799
 20
136.235
 11
14.7034
 21
136.372
  0
LINE
  8
0
 10
14.7034
 20
136.372
 11
15.222
 21
136.948
  0
LINE
  8
0
 10
15.222
 20
136.948
 11
15.3634
 21
137.066
  0
LINE
  8
0
 10
15.3634
 20
137.066
 11
15.5429
 21
137.217
  0
LINE
  8
0
 10
15.5429
 20
137.217
 11
15.5429
 21
143.293
  0
LINE
  8
0
 10
15.5429
 20
143.293
 11
0.707108
 21
143.293
  0
LINE
  8
0
 10
0.707108
 20
143.293
 11
0.707108
 21
0.707107
  0
LINE
  8
0
 10
5.7
 20
23.25
 11
5.7
 21
65.9079
  0
LINE
  8
0
 10
5.7
 20
65.9079
 11
6.09423
 21
66.0475
  0
LINE
  8
0
 10
6.09423
 20
66.0475
 11
8.35314
 21
66.7167
  0
LINE
  8
0
 10
8.35314
 20
66.7167
 11
10.644
 21
67.2666
  0
LINE
  8
0
 10
10.644
 20
67.2666
 11
12.9604
 21
67.696
  0
LINE
  8
0
 10
12.9604
 20
67.696
 11
15.2962
 21
68.0035
  0
LINE
  8
0
 10
15.2962
 20
68.0035
 11
17.6449
 21
68.1883
  0
LINE
  8
0
 10
17.6449
 20
68.1883
 11
20
 21
68.25
  0
LINE
  8
0
 10
20
 20
68.25
 11
22.3551
 21
68.1883
  0
LINE
  8
0
 10
22.3551
 20
68.1883
 11
24.7038
 21
68.0035
  0
LINE
  8
0
 10
24.7038
 20
68.0035
 11
27.0396
 21
67.696
  0
LINE
  8
0
 10
27.0396
 20
67.696
 11
29.356
 21
67.2666
  0
LINE
  8
0
 10
29.356
 20
67.2666
 11
31.6469
 21
66.7167
  0
LINE
  8
0
 10
31.6469
 20
66.7167
 11
33.9058
 21
66.0475
  0
LINE
  8
0
 10
33.9058
 20
66.0475
 11
36.1266
 21
65.2611
  0
LINE
  8
0
 10
36.1266
 20
65.2611
 11
38.3031
 21
64.3595
  0
LINE
  8
0
 10
38.3031
 20
64.3595
 11
40.4296
 21
63.3453
  0
LINE
  8
0
 10
40.4296
 20
63.3453
 11
42.5
 21
62.2211
  0
LINE
  8
0
 10
42.5
 20
62.2211
 11
42.6008
 21
62.1594
  0
LINE
  8
0
 10
42.6008
 20
62.1594
 11
41.1657
 21
58.1068
  0
LINE
  8
0
 10
41.1657
 20
58.1068
 11
38.3697
 21
48.6677
  0
LINE
  8
0
 10
38.3697
 20
48.6677
 11
36.0716
 21
39.0952
  0
LINE
  8
0
 10
36.0716
 20
39.0952
 11
34.2776
 21
29.4155
  0
LINE
  8
0
 10
34.2776
 20
29.4155
 11
33.4658
 21
23.25
  0
LINE
  8
0
 10
33.4658
 20
23.25
 11
5.7
 21
23.25
  0
LINE
  8
0
 10
17.5
 20
114
 11
17.6903
 21
114.957
  0
LINE
  8
0
 10
17.6903
 20
114.957
 11
18.2322
 21
115.768
  0
LINE
  8
0
 10
18.2322
 20
115.768
 11
19.0433
 21
116.31
  0
LINE
  8
0
 10
19.0433
 20
116.31
 11
20
 21
116.5
  0
LINE
  8
0
 10
20
 20
116.5
 11
20.9567
 21
116.31
  0
LINE
  8
0
 10
20.9567
 20
116.31
 11
21.7678
 21
115.768
  0
LINE
  8
0
 10
21.7678
 20
115.768
 11
22.3097
 21
114.957
  0
LINE
  8
0
 10
22.3097
 20
114.957
 11
22.5
 21
114
  0
LINE
  8
0
 10
22.5
 20
114
 11
22.3097
 21
113.043
  0
LINE
  8
0
 10
22.3097
 20
113.043
 11
21.7678
 21
112.232
  0
LINE
  8
0
 10
21.7678
 20
112.232
 11
20.9567
 21
111.69
  0
LINE
  8
0
 10
20.9567
 20
111.69
 11
20
 21
111.5
  0
LINE
  8
0
 10
20
 20
111.5
 11
19.0433
 21
111.69
  0
LINE
  8
0
 10
19.0433
 20
111.69
 11
18.2322
 21
112.232
  0
LINE
  8
0
 10
18.2322
 20
112.232
 11
17.6903
 21
113.043
  0
LINE
  8
0
 10
17.6903
 20
113.043
 11
17.5
 21
114
  0
LINE
  8
0
 10
57.9951
 20
120.657
 11
58.1854
 21
121.614
  0
LINE
  8
0
 10
58.1854
 20
121.614
 11
58.7273
 21
122.425
  0
LINE
  8
0
 10
58.7273
 20
122.425
 11
59.5384
 21
122.967
  0
LINE
  8
0
 10
59.5384
 20
122.967
 11
60.4951
 21
123.157
  0
LINE
  8
0
 10
60.4951
 20
123.157
 11
61.4518
 21
122.967
  0
LINE
  8
0
 10
61.4518
 20
122.967
 11
62.2628
 21
122.425
  0
LINE
  8
0
 10
62.2628
 20
122.425
 11
62.8048
 21
121.614
  0
LINE
  8
0
 10
62.8048
 20
121.614
 11
62.9951
 21
120.657
  0
LINE
  8
0
 10
62.9951
 20
120.657
 11
62.8048
 21
119.701
  0
LINE
  8
0
 10
62.8048
 20
119.701
 11
62.2628
 21
118.89
  0
LINE
  8
0
 10
62.2628
 20
118.89
 11
61.4518
 21
118.348
  0
LINE
  8
0
 10
61.4518
 20
118.348
 11
60.4951
 21
118.157
  0
LINE
  8
0
 10
60.4951
 20
118.157
 11
59.5384
 21
118.348
  0
LINE
  8
0
 10
59.5384
 20
118.348
 11
58.7273
 21
118.89
  0
LINE
  8
0
 10
58.7273
 20
118.89
 11
58.1854
 21
119.701
  0
LINE
  8
0
 10
58.1854
 20
119.701
 11
57.9951
 21
120.657
  0
LINE
  8
0
 10
14.675
 20
44.3251
 11
14.8953
 21
44.3852
  0
LINE
  8
0
 10
14.8953
 20
44.3852
 11
16.0146
 21
44.6274
  0
LINE
  8
0
 10
16.0146
 20
44.6274
 11
17.1452
 21
44.8096
  0
LINE
  8
0
 10
17.1452
 20
44.8096
 11
18.2839
 21
44.9314
  0
LINE
  8
0
 10
18.2839
 20
44.9314
 11
19.4274
 21
44.9924
  0
LINE
  8
0
 10
19.4274
 20
44.9924
 11
20.5726
 21
44.9924
  0
LINE
  8
0
 10
20.5726
 20
44.9924
 11
21.7161
 21
44.9314
  0
LINE
  8
0
 10
21.7161
 20
44.9314
 11
22.8548
 21
44.8096
  0
LINE
  8
0
 10
22.8548
 20
44.8096
 11
23.9854
 21
44.6274
  0
LINE
  8
0
 10
23.9854
 20
44.6274
 11
25.1047
 21
44.3852
  0
LINE
  8
0
 10
25.1047
 20
44.3852
 11
26.2095
 21
44.0838
  0
LINE
  8
0
 10
26.2095
 20
44.0838
 11
27.2967
 21
43.724
  0
LINE
  8
0
 10
27.2967
 20
43.724
 11
28.3632
 21
43.3068
  0
LINE
  8
0
 10
28.3632
 20
43.3068
 11
29.4059
 21
42.8334
  0
LINE
  8
0
 10
29.4059
 20
42.8334
 11
30.422
 21
42.3051
  0
LINE
  8
0
 10
30.422
 20
42.3051
 11
30.5188
 21
42.2481
  0
LINE
  8
0
 10
30.5188
 20
42.2481
 11
32.4413
 21
50.2562
  0
LINE
  8
0
 10
32.4413
 20
50.2562
 11
34.6052
 21
57.5612
  0
LINE
  8
0
 10
34.6052
 20
57.5612
 11
34.3793
 21
57.6634
  0
LINE
  8
0
 10
34.3793
 20
57.6634
 11
32.5451
 21
58.3787
  0
LINE
  8
0
 10
32.5451
 20
58.3787
 11
30.6756
 21
58.9956
  0
LINE
  8
0
 10
30.6756
 20
58.9956
 11
28.776
 21
59.5123
  0
LINE
  8
0
 10
28.776
 20
59.5123
 11
26.8516
 21
59.9275
  0
LINE
  8
0
 10
26.8516
 20
59.9275
 11
24.9078
 21
60.2398
  0
LINE
  8
0
 10
24.9078
 20
60.2398
 11
22.9502
 21
60.4486
  0
LINE
  8
0
 10
22.9502
 20
60.4486
 11
20.9843
 21
60.5531
  0
LINE
  8
0
 10
20.9843
 20
60.5531
 11
19.0157
 21
60.5531
  0
LINE
  8
0
 10
19.0157
 20
60.5531
 11
17.0498
 21
60.4486
  0
LINE
  8
0
 10
17.0498
 20
60.4486
 11
15.0922
 21
60.2398
  0
LINE
  8
0
 10
15.0922
 20
60.2398
 11
14.675
 21
60.1728
  0
LINE
  8
0
 10
14.675
 20
60.1728
 11
14.675
 21
44.3251
  0
LINE
  8
0
 10
15.25
 20
30
 11
15.3538
 21
29.0124
  0
LINE
  8
0
 10
15.3538
 20
29.0124
 11
15.6607
 21
28.068
  0
LINE
  8
0
 10
15.6607
 20
28.068
 11
16.1572
 21
27.208
  0
LINE
  8
0
 10
16.1572
 20
27.208
 11
16.8216
 21
26.4701
  0
LINE
  8
0
 10
16.8216
 20
26.4701
 11
17.625
 21
25.8864
  0
LINE
  8
0
 10
17.625
 20
25.8864
 11
18.5322
 21
25.4825
  0
LINE
  8
0
 10
18.5322
 20
25.4825
 11
19.5035
 21
25.276
  0
LINE
  8
0
 10
19.5035
 20
25.276
 11
20.4965
 21
25.276
  0
LINE
  8
0
 10
20.4965
 20
25.276
 11
21.4678
 21
25.4825
  0
LINE
  8
0
 10
21.4678
 20
25.4825
 11
22.375
 21
25.8864
  0
LINE
  8
0
 10
22.375
 20
25.8864
 11
23.1784
 21
26.4701
  0
LINE
  8
0
 10
23.1784
 20
26.4701
 11
23.8428
 21
27.208
  0
LINE
  8
0
 10
23.8428
 20
27.208
 11
24.3393
 21
28.068
  0
LINE
  8
0
 10
24.3393
 20
28.068
 11
24.6462
 21
29.0124
  0
LINE
  8
0
 10
24.6462
 20
29.0124
 11
24.75
 21
30
  0
LINE
  8
0
 10
24.75
 20
30
 11
24.6462
 21
30.9876
  0
LINE
  8
0
 10
24.6462
 20
30.9876
 11
24.3393
 21
31.932
  0
LINE
  8
0
 10
24.3393
 20
31.932
 11
23.8428
 21
32.792
  0
LINE
  8
0
 10
23.8428
 20
32.792
 11
23.1784
 21
33.5299
  0
LINE
  8
0
 10
23.1784
 20
33.5299
 11
22.375
 21
34.1136
  0
LINE
  8
0
 10
22.375
 20
34.1136
 11
21.4678
 21
34.5175
  0
LINE
  8
0
 10
21.4678
 20
34.5175
 11
20.4965
 21
34.724
  0
LINE
  8
0
 10
20.4965
 20
34.724
 11
19.5035
 21
34.724
  0
LINE
  8
0
 10
19.5035
 20
34.724
 11
18.5322
 21
34.5175
  0
LINE
  8
0
 10
18.5322
 20
34.5175
 11
17.625
 21
34.1136
  0
LINE
  8
0
 10
17.625
 20
34.1136
 11
16.8216
 21
33.5299
  0
LINE
  8
0
 10
16.8216
 20
33.5299
 11
16.1572
 21
32.792
  0
LINE
  8
0
 10
16.1572
 20
32.792
 11
15.6607
 21
31.932
  0
LINE
  8
0
 10
15.6607
 20
31.932
 11
15.3538
 21
30.9876
  0
LINE
  8
0
 10
15.3538
 20
30.9876
 11
15.25
 21
30
  0
ENDSEC
  0
SECTION
  2
OBJECTS
  0
DICTIONARY
  0
ENDSEC
  0
EOF
